<?xml version="1.0" encoding="UTF-8" standalone="no"?>
<!-- Created with Inkscape (http://www.inkscape.org/) -->

<svg
   xmlns:dc="http://purl.org/dc/elements/1.1/"
   xmlns:cc="http://creativecommons.org/ns#"
   xmlns:rdf="http://www.w3.org/1999/02/22-rdf-syntax-ns#"
   xmlns:svg="http://www.w3.org/2000/svg"
   xmlns="http://www.w3.org/2000/svg"
   xmlns:sodipodi="http://sodipodi.sourceforge.net/DTD/sodipodi-0.dtd"
   xmlns:inkscape="http://www.inkscape.org/namespaces/inkscape"
   width="36.688889mm"
   height="12.7mm"
   viewBox="0 0 130 44.999999"
   id="svg4238"
   version="1.1"
   inkscape:version="0.92.2 2405546, 2018-03-11"
   sodipodi:docname="18-pixel-logo.svg">
  <defs
     id="defs4240" />
  <sodipodi:namedview
     id="base"
     pagecolor="#ffffff"
     bordercolor="#666666"
     borderopacity="1.0"
     inkscape:pageopacity="0.0"
     inkscape:pageshadow="2"
     inkscape:zoom="3.959798"
     inkscape:cx="51.74446"
     inkscape:cy="-1.1093119"
     inkscape:document-units="px"
     inkscape:current-layer="layer1"
     showgrid="true"
     objecttolerance="10000"
     guidetolerance="10000"
     inkscape:snap-perpendicular="true"
     inkscape:snap-path-mask="true"
     inkscape:snap-path-clip="true"
     inkscape:window-width="1920"
     inkscape:window-height="1016"
     inkscape:window-x="0"
     inkscape:window-y="27"
     inkscape:window-maximized="1"
     fit-margin-top="0"
     fit-margin-left="0"
     fit-margin-right="0"
     fit-margin-bottom="0">
    <inkscape:grid
       type="xygrid"
       id="grid4788"
       originx="-125"
       originy="-539.99998" />
  </sodipodi:namedview>
  <metadata
     id="metadata4243">
    <rdf:RDF>
      <cc:Work
         rdf:about="">
        <dc:format>image/svg+xml</dc:format>
        <dc:type
           rdf:resource="http://purl.org/dc/dcmitype/StillImage" />
        <dc:title></dc:title>
      </cc:Work>
    </rdf:RDF>
  </metadata>
  <g
     inkscape:label="Calque 1"
     inkscape:groupmode="layer"
     id="layer1"
     transform="translate(-125,-467.36221)">
    <rect
       style="color:#000000;clip-rule:nonzero;display:inline;overflow:visible;visibility:visible;opacity:0.97000002;isolation:auto;mix-blend-mode:normal;color-interpolation:sRGB;color-interpolation-filters:linearRGB;solid-color:#000000;solid-opacity:1;fill:#003380;fill-opacity:1;fill-rule:nonzero;stroke:none;stroke-width:1px;stroke-linecap:butt;stroke-linejoin:miter;stroke-miterlimit:4;stroke-dasharray:none;stroke-dashoffset:0;stroke-opacity:1;color-rendering:auto;image-rendering:auto;shape-rendering:auto;text-rendering:auto;enable-background:accumulate"
       id="rect5002"
       width="130"
       height="45"
       x="125"
       y="467.36221"
       inkscape:export-xdpi="300"
       inkscape:export-ydpi="300" />
    <g
       id="g5004"
       transform="translate(1.4893489e-8,2.4841431)"
       style="fill:#d7e3f4;fill-opacity:1;stroke:none;stroke-opacity:1"
       inkscape:export-xdpi="300"
       inkscape:export-ydpi="300">
      <g
         style="fill:#d7e3f4;fill-opacity:1;stroke:none;stroke-opacity:1"
         id="g4995">
        <path
           style="color:#000000;clip-rule:nonzero;display:inline;overflow:visible;visibility:visible;opacity:0.97000002;isolation:auto;mix-blend-mode:normal;color-interpolation:sRGB;color-interpolation-filters:linearRGB;solid-color:#000000;solid-opacity:1;fill:#d7e3f4;fill-opacity:1;fill-rule:nonzero;stroke:none;stroke-width:1px;stroke-linecap:butt;stroke-linejoin:miter;stroke-miterlimit:4;stroke-dasharray:none;stroke-dashoffset:0;stroke-opacity:1;color-rendering:auto;image-rendering:auto;shape-rendering:auto;text-rendering:auto;enable-background:accumulate"
           d="m 135,164.09375 v 5 h 5 v 25.0332 h 5 v -25.0332 -0.0117 -4.98828 h -10 z"
           transform="translate(0,308.26772)"
           id="rect4904"
           inkscape:connector-curvature="0" />
        <path
           style="color:#000000;clip-rule:nonzero;display:inline;overflow:visible;visibility:visible;opacity:0.97000002;isolation:auto;mix-blend-mode:normal;color-interpolation:sRGB;color-interpolation-filters:linearRGB;solid-color:#000000;solid-opacity:1;fill:#d7e3f4;fill-opacity:1;fill-rule:nonzero;stroke:none;stroke-width:1px;stroke-linecap:butt;stroke-linejoin:miter;stroke-miterlimit:4;stroke-dasharray:none;stroke-dashoffset:0;stroke-opacity:1;color-rendering:auto;image-rendering:auto;shape-rendering:auto;text-rendering:auto;enable-background:accumulate"
           d="m 150,164.09375 v 5 5 h 5 v -5 h 5 v -5 h -5 z"
           transform="translate(0,308.26772)"
           id="rect4924"
           inkscape:connector-curvature="0" />
        <rect
           style="color:#000000;clip-rule:nonzero;display:inline;overflow:visible;visibility:visible;opacity:0.97000002;isolation:auto;mix-blend-mode:normal;color-interpolation:sRGB;color-interpolation-filters:linearRGB;solid-color:#000000;solid-opacity:1;fill:#d7e3f4;fill-opacity:1;fill-rule:nonzero;stroke:none;stroke-width:1px;stroke-linecap:butt;stroke-linejoin:miter;stroke-miterlimit:4;stroke-dasharray:none;stroke-dashoffset:0;stroke-opacity:1;color-rendering:auto;image-rendering:auto;shape-rendering:auto;text-rendering:auto;enable-background:accumulate"
           id="rect4928"
           width="5"
           height="5"
           x="160"
           y="477.36221" />
        <rect
           style="color:#000000;clip-rule:nonzero;display:inline;overflow:visible;visibility:visible;opacity:0.97000002;isolation:auto;mix-blend-mode:normal;color-interpolation:sRGB;color-interpolation-filters:linearRGB;solid-color:#000000;solid-opacity:1;fill:#d7e3f4;fill-opacity:1;fill-rule:nonzero;stroke:none;stroke-width:1px;stroke-linecap:butt;stroke-linejoin:miter;stroke-miterlimit:4;stroke-dasharray:none;stroke-dashoffset:0;stroke-opacity:1;color-rendering:auto;image-rendering:auto;shape-rendering:auto;text-rendering:auto;enable-background:accumulate"
           id="rect4930"
           width="5"
           height="5"
           x="155"
           y="482.36221" />
        <path
           style="color:#000000;clip-rule:nonzero;display:inline;overflow:visible;visibility:visible;opacity:0.97000002;isolation:auto;mix-blend-mode:normal;color-interpolation:sRGB;color-interpolation-filters:linearRGB;solid-color:#000000;solid-opacity:1;fill:#d7e3f4;fill-opacity:1;fill-rule:nonzero;stroke:none;stroke-width:1px;stroke-linecap:butt;stroke-linejoin:miter;stroke-miterlimit:4;stroke-dasharray:none;stroke-dashoffset:0;stroke-opacity:1;color-rendering:auto;image-rendering:auto;shape-rendering:auto;text-rendering:auto;enable-background:accumulate"
           d="m 160,179.09375 v 10 h -5 v 5 h 5 5 v -15 z"
           transform="translate(0,308.26772)"
           id="rect4940"
           inkscape:connector-curvature="0" />
      </g>
      <rect
         y="487.36221"
         x="150"
         height="10"
         width="5"
         id="rect4944"
         style="color:#000000;clip-rule:nonzero;display:inline;overflow:visible;visibility:visible;opacity:0.97000002;isolation:auto;mix-blend-mode:normal;color-interpolation:sRGB;color-interpolation-filters:linearRGB;solid-color:#000000;solid-opacity:1;fill:#d7e3f4;fill-opacity:1;fill-rule:nonzero;stroke:none;stroke-width:1px;stroke-linecap:butt;stroke-linejoin:miter;stroke-miterlimit:4;stroke-dasharray:none;stroke-dashoffset:0;stroke-opacity:1;color-rendering:auto;image-rendering:auto;shape-rendering:auto;text-rendering:auto;enable-background:accumulate" />
    </g>
    <g
       style="font-style:normal;font-variant:normal;font-weight:normal;font-stretch:normal;font-size:34.45580292px;line-height:125%;font-family:'Kaushan Script';-inkscape-font-specification:'Kaushan Script';letter-spacing:0px;word-spacing:0px;fill:#aaccff;fill-opacity:1;stroke:none;stroke-width:1px;stroke-linecap:butt;stroke-linejoin:miter;stroke-opacity:1"
       id="text4949"
       transform="translate(1.7677669,3.4092649)"
       inkscape:export-xdpi="300"
       inkscape:export-ydpi="300">
      <path
         d="m 192.43545,480.98389 c 0,-4.03132 -3.23885,-6.78779 -8.51058,-6.78779 -4.4448,0 -9.92327,1.37823 -12.61083,3.20439 0.10337,1.06813 1.1715,2.92874 1.96398,3.48004 1.20596,-0.99922 3.10103,-1.96398 5.23729,-2.6531 -0.68912,2.79092 -1.30932,4.30698 -2.79092,7.85592 -3.27331,7.82147 -4.82382,11.43933 -5.75412,13.23103 0.89585,1.55051 1.92952,2.61864 3.65231,3.03211 0.82694,-3.92796 2.23963,-8.06266 4.51371,-13.02429 0.82694,0.86139 1.34378,1.10258 2.48082,1.10258 6.44324,0 11.81834,-4.37588 11.81834,-9.44089 z m -6.13313,-4.13469 c 3.13548,0 4.78935,1.58497 4.78935,3.96242 0,3.5834 -4.85826,6.44323 -11.99062,6.44323 2.17072,-4.61708 3.99688,-8.40722 4.92718,-9.57871 l -0.41347,-0.62021 c 0.93031,-0.13782 1.82616,-0.20673 2.68756,-0.20673 z"
         id="path4954"
         inkscape:connector-curvature="0"
         style="fill:#aaccff" />
      <path
         d="m 190.67174,497.24703 c 0,2.0329 2.17072,2.92875 2.51528,2.92875 0.20673,0 0.20673,-0.31011 0.20673,-1.13704 0.0345,-0.99922 0.55129,-2.48082 1.03368,-3.75569 1.17149,-3.03211 1.7917,-5.47847 3.8935,-7.82146 -0.89585,-1.34378 -2.44636,-2.10181 -3.20439,-2.27409 -2.06735,1.03368 -3.06656,4.61708 -3.2733,5.51293 -0.89585,4.1347 -1.1715,5.75412 -1.1715,6.5466 z m 6.58106,-14.95381 c 0,0.37901 0.48238,0.82693 1.03368,0.9303 0.34455,-0.75803 2.85983,-3.82459 3.8935,-4.78935 -0.68911,-1.03368 -3.10102,-2.41191 -4.16915,-2.41191 -0.58575,1.4816 -1.06813,3.72123 -1.06813,4.51371 0,0.37901 0.17228,0.89585 0.41347,1.13704 -0.0689,0.27565 -0.10337,0.48238 -0.10337,0.62021 z"
         id="path4956"
         inkscape:connector-curvature="0"
         style="fill:#aaccff" />
      <path
         d="m 209.49592,499.34884 c -1.10259,-2.10181 -2.06735,-4.06579 -2.68755,-5.82303 3.61785,-3.61786 6.09867,-7.02899 6.61551,-9.13079 -0.20674,-0.51684 -1.13704,-0.99922 -2.27408,-1.20595 -1.65388,3.68677 -3.16994,6.16758 -5.06501,8.3383 -0.68911,-2.13626 -0.96476,-3.96242 -0.96476,-5.75412 0,-0.68911 0,-0.96476 0.0689,-1.44714 -1.03367,-0.34456 -2.82537,-0.72357 -3.79014,-0.72357 -0.58574,0 -0.68911,0.17227 -0.68911,0.79248 0,1.7917 1.1715,6.30541 2.72201,9.95773 -1.72279,1.99843 -5.20283,4.47925 -7.02899,5.47847 0.0345,0.72357 0.41347,1.20595 0.89585,1.30932 1.99844,-1.1715 4.4448,-2.9632 6.7878,-5.065 0.86139,2.1018 1.92952,3.75568 2.68755,4.65153 0.96476,-0.0689 2.23963,-0.58575 2.72201,-1.37823 z"
         id="path4958"
         inkscape:connector-curvature="0"
         style="fill:#aaccff" />
      <path
         d="m 225.51679,485.29087 c -0.93031,-1.1715 -1.92952,-1.82616 -2.9632,-1.96398 -4.54816,0 -9.71653,6.64997 -9.71653,12.30072 0,2.75647 1.86061,4.92718 5.03054,5.27174 2.17072,-0.48238 4.82382,-2.44636 6.89116,-5.16837 -0.17228,-0.20674 -0.34455,-0.37902 -0.58574,-0.58575 -1.44715,1.55051 -3.8246,4.03133 -6.30542,4.03133 -1.30932,0 -1.58496,-1.58497 -1.58496,-2.75647 0,-0.3101 0.0345,-0.6202 0.0345,-0.89585 5.85749,-2.34299 8.85514,-4.58262 9.1997,-10.23337 z m -2.37745,1.13704 c -0.17228,3.13548 -2.89429,5.96086 -6.5466,7.78701 1.10258,-4.27252 4.03133,-7.44245 6.5466,-7.78701 z"
         id="path4960"
         inkscape:connector-curvature="0"
         style="fill:#aaccff" />
      <path
         d="m 227.07753,497.3504 c 0,1.4816 0.3101,2.79092 0.72357,3.06657 0.3101,0.20673 0.82694,0.75803 0.93031,0.99922 0.13782,0.3101 0.65466,0.58574 1.27486,0.65466 -0.0344,-0.17228 -0.0344,-0.20674 -0.0344,-0.99922 0,-2.89429 1.03367,-7.37354 2.9632,-12.74865 2.27408,-6.30541 4.85826,-10.95694 8.44167,-15.19501 -0.37902,-0.58575 -2.75647,-1.96398 -3.85905,-2.17071 -2.37745,2.89428 -4.85827,8.0282 -7.68365,15.7463 -1.75724,4.82381 -2.75646,8.6484 -2.75646,10.64684 z"
         id="path4962"
         inkscape:connector-curvature="0"
         style="fill:#aaccff" />
    </g>
  </g>
</svg>
