<?xml version="1.0" encoding="UTF-8" standalone="no"?>
<!-- Created with Inkscape (http://www.inkscape.org/) -->

<svg
   xmlns:dc="http://purl.org/dc/elements/1.1/"
   xmlns:cc="http://creativecommons.org/ns#"
   xmlns:rdf="http://www.w3.org/1999/02/22-rdf-syntax-ns#"
   xmlns:svg="http://www.w3.org/2000/svg"
   xmlns="http://www.w3.org/2000/svg"
   xmlns:sodipodi="http://sodipodi.sourceforge.net/DTD/sodipodi-0.dtd"
   xmlns:inkscape="http://www.inkscape.org/namespaces/inkscape"
   width="210mm"
   height="297mm"
   viewBox="0 0 210 297"
   version="1.1"
   id="svg8"
   inkscape:version="0.92.3 (2405546, 2018-03-11)"
   sodipodi:docname="A.svg">
  <defs
     id="defs2">
    <filter
       inkscape:collect="always"
       style="color-interpolation-filters:sRGB"
       id="filter819"
       x="-0.013048852"
       width="1.0260977"
       y="-0.01195635"
       height="1.0239127">
      <feGaussianBlur
         inkscape:collect="always"
         stdDeviation="0.33085486"
         id="feGaussianBlur821" />
    </filter>
  </defs>
  <sodipodi:namedview
     id="base"
     pagecolor="#ffffff"
     bordercolor="#666666"
     borderopacity="1.0"
     inkscape:pageopacity="0.0"
     inkscape:pageshadow="2"
     inkscape:zoom="0.77243129"
     inkscape:cx="459.76201"
     inkscape:cy="1001.9801"
     inkscape:document-units="mm"
     inkscape:current-layer="layer1"
     showgrid="false"
     inkscape:window-width="1920"
     inkscape:window-height="960"
     inkscape:window-x="0"
     inkscape:window-y="27"
     inkscape:window-maximized="1" />
  <metadata
     id="metadata5">
    <rdf:RDF>
      <cc:Work
         rdf:about="">
        <dc:format>image/svg+xml</dc:format>
        <dc:type
           rdf:resource="http://purl.org/dc/dcmitype/StillImage" />
        <dc:title></dc:title>
      </cc:Work>
    </rdf:RDF>
  </metadata>
  <g
     inkscape:label="Calque 1"
     inkscape:groupmode="layer"
     id="layer1"
     style="display:inline">
    <text
       xml:space="preserve"
       style="font-style:normal;font-weight:normal;font-size:91.10040283px;line-height:1.25;font-family:sans-serif;letter-spacing:0px;word-spacing:0px;fill:#3b00ff;fill-opacity:1;stroke:none;stroke-width:0.3416265;filter:url(#filter819)"
       x="144.27489"
       y="185.1227"
       id="text817"
       transform="matrix(2.2976056,0,0,3.7226377,-293.60064,-397.76312)"><tspan
         sodipodi:role="line"
         id="tspan815"
         x="144.27489"
         y="185.1227"
         style="font-size:91.10040283px;fill:#3b00ff;fill-opacity:1;stroke-width:0.3416265">A</tspan></text>
  </g>
  <g
     inkscape:groupmode="layer"
     id="layer2"
     inkscape:label="girlande rouge"
     style="display:inline"
     transform="translate(0,87)">
    <path
       style="fill:none;fill-opacity:1;stroke:#f90000;stroke-width:9.84120369;stroke-linecap:butt;stroke-linejoin:miter;stroke-miterlimit:4;stroke-dasharray:none;stroke-opacity:1"
       d="m 122.20355,-39.05133 -23.694945,-1.503074 c -5.666341,0.362948 -29.515074,23.015544 -10.306079,34.7957407 15.523134,4.253688 29.884054,3.084871 40.376214,9.916968 0,0 17.49927,5.225002 13.45877,24.7924133 -1.69676,16.108077 -18.87996,10.836306 -60.210181,12.750368 0,0 -32.57716,5.940475 -9.208586,30.459284 36.196707,10.675755 62.736477,16.47759 81.460737,23.375674 8.6645,6.209986 16.251,14.370636 9.91697,38.251186 -5.43749,18.12502 -101.780868,27.49565 -122.54534,33.29265"
       id="path824"
       inkscape:connector-curvature="0"
       sodipodi:nodetypes="cccccccccc" />
    <path
       style="fill:none;fill-opacity:1;stroke:#00ea00;stroke-width:9.09198475;stroke-linecap:butt;stroke-linejoin:miter;stroke-miterlimit:4;stroke-dasharray:none;stroke-opacity:1"
       d="m 98.508605,-40.554404 c 9.978945,-2.264227 9.313475,-0.505786 17.161515,-0.948239 6.53343,2.451313 19.70233,11.845457 16.7386,25.949332 -2.23793,8.7515266 -33.664287,3.990745 -44.206194,9.7946477 0,0 -17.582265,4.438663 -13.5226,21.0612853 1.704795,13.683849 18.969507,9.205488 60.495734,10.831509 0,0 32.73166,5.046476 9.25228,25.875374 -36.36838,9.06913 -63.034032,13.997817 -81.847108,19.857792 -8.705589,5.275407 -16.328062,12.207914 -9.964006,32.494563 5.463286,15.39729 102.263604,23.35769 123.126554,28.2823"
       id="path824-3"
       inkscape:connector-curvature="0"
       sodipodi:nodetypes="cccccccccc" />
  </g>
  <g
     inkscape:groupmode="layer"
     id="layer3"
     inkscape:label="girlande verte"
     style="display:inline"
     transform="translate(0,87)" />
  <g
     inkscape:groupmode="layer"
     id="layer4"
     inkscape:label="girlande jaune"
     transform="translate(0,87)">
    <path
       style="fill:none;stroke:#ffff03;stroke-width:10.71857643;stroke-linecap:butt;stroke-linejoin:miter;stroke-miterlimit:4;stroke-dasharray:none;stroke-opacity:1"
       d="m 69.076963,65.07681 c 31.838997,5.938997 64.602617,10.235553 85.002537,4.958474 13.45874,10.625336 11.65901,12.366658 2.12507,24.084066 -34.00047,5.9075 -61.184995,6.13208 -97.044586,-2.833448 -8.76256,6.421202 -13.308875,17.007508 -2.83339,26.917488 37.384549,16.85462 69.117106,17.20927 108.378226,7.79189 16.81629,10.37467 3.21812,26.14506 2.83342,26.20916 -49.08216,12.49352 -92.49555,16.2152 -118.295206,4.25012 -10.504587,-4.20184 -23.584613,16.50718 -9.916981,31.16756 19.329675,13.3578 97.316577,13.14352 142.379277,0.7084"
       id="path4550"
       inkscape:connector-curvature="0"
       sodipodi:nodetypes="cccccccccc" />
  </g>
</svg>
