<?xml version="1.0" encoding="UTF-8" standalone="no"?>
<!-- Created with Inkscape (http://www.inkscape.org/) -->

<svg
   xmlns:dc="http://purl.org/dc/elements/1.1/"
   xmlns:cc="http://creativecommons.org/ns#"
   xmlns:rdf="http://www.w3.org/1999/02/22-rdf-syntax-ns#"
   xmlns:svg="http://www.w3.org/2000/svg"
   xmlns="http://www.w3.org/2000/svg"
   xmlns:sodipodi="http://sodipodi.sourceforge.net/DTD/sodipodi-0.dtd"
   xmlns:inkscape="http://www.inkscape.org/namespaces/inkscape"
   width="88.025803mm"
   height="235.44513mm"
   viewBox="0 0 88.025803 235.44513"
   version="1.1"
   id="svg8"
   sodipodi:docname="boisDeRenne.svg"
   inkscape:version="0.92.3 (2405546, 2018-03-11)">
  <defs
     id="defs2" />
  <sodipodi:namedview
     id="base"
     pagecolor="#ffffff"
     bordercolor="#666666"
     borderopacity="1.0"
     inkscape:pageopacity="0.0"
     inkscape:pageshadow="2"
     inkscape:zoom="0.38621565"
     inkscape:cx="-550.64948"
     inkscape:cy="328.73796"
     inkscape:document-units="mm"
     inkscape:current-layer="layer1"
     showgrid="false"
     inkscape:window-width="1920"
     inkscape:window-height="960"
     inkscape:window-x="0"
     inkscape:window-y="27"
     inkscape:window-maximized="1"
     fit-margin-top="0"
     fit-margin-left="0"
     fit-margin-right="0"
     fit-margin-bottom="0" />
  <metadata
     id="metadata5">
    <rdf:RDF>
      <cc:Work
         rdf:about="">
        <dc:format>image/svg+xml</dc:format>
        <dc:type
           rdf:resource="http://purl.org/dc/dcmitype/StillImage" />
        <dc:title></dc:title>
      </cc:Work>
    </rdf:RDF>
  </metadata>
  <g
     inkscape:label="Calque 1"
     inkscape:groupmode="layer"
     id="layer1"
     transform="translate(-171.06412,142.84062)">
    <path
       style="opacity:1;fill:#552200;fill-opacity:1;stroke:#000000;stroke-width:1.17999995;stroke-linejoin:round;stroke-miterlimit:4;stroke-dasharray:none;stroke-opacity:1"
       d="m 185.57771,-74.175699 -11.45997,-53.986781 c 6.49439,-9.92086 13.35141,-16.17253 21.43308,-10.03285 8.06261,20.66345 8.05994,45.847691 10.30623,45.015461 12.71199,-4.70971 21.97858,-2.35028 28.01178,-0.72639 4.48646,1.20756 15.56927,4.82582 19.06384,17.69061 2.54852,6.8312 3.22236,10.91658 1.68635,14.05661 -1.75709,3.59199 -3.61739,2.57599 -6.62672,1.68025 -10.23463,-3.0464 -35.1024,-29.38312 -47.25475,-12.99598 -9.58244,12.92169 17.17672,52.577635 40.79362,56.141083 12.4947,1.885268 16.53542,28.88868 15.0701,31.120477 -4.53825,6.912149 -9.35439,7.587927 -14.65626,-0.876413 -4.91615,-7.8485335 -15.74936,-17.7632005 -30.84816,-34.202193 -1.07333,-1.168597 -3.52378,-4.976732 -5.44082,-2.350611 -0.7554,1.034793 -2.01045,2.321464 -3.25066,3.597822 -3.71135,3.819573 -1.13786,10.7019945 -1.89287,16.2002195 -0.29384,2.139848 -0.17087,4.29766396 -0.25412,6.415073 -0.44488,11.3157765 -3.80304,22.3332855 -1.27224,31.5475435 2.08524,7.592021 1.76266,15.043512 5.07104,19.780519 13.29343,19.033856 15.64686,27.944421 13.54277,31.060994 -7.68291,11.379915 -11.70485,5.573696 -11.70485,5.573696 -5.91403,-5.019421 -10.18795,-11.993269 -11.79017,-15.114662 -2.87925,-5.609272 -17.64725,-20.370548 -8.79651,-78.0950945 0.75588,-4.92986 0.16969,-11.7542785 0.74682,-19.6538845 1.44224,-19.740889 0.27397,-45.144719 -0.47753,-51.845499 z"
       id="rect1420"
       inkscape:connector-curvature="0"
       sodipodi:nodetypes="cccsscssssssssssssssssssc" />
    <path
       style="opacity:1;fill:#ffffff;fill-opacity:1;stroke:#000000;stroke-width:1.16537988;stroke-linejoin:round;stroke-miterlimit:4;stroke-dasharray:none;stroke-opacity:1"
       d="m 176.32943,-137.00124 c 1.61096,-8.90267 6.14921,-1.81566 12.02849,-4.50423 5.13554,-2.34846 8.26843,1.36248 9.55363,2.70016 4.20571,0.60187 6.10417,4.17878 2.40543,4.78614 -8.73308,1.95223 -14.52936,13.10645 -26.19924,5.85669 -4.77533,-3.98037 -1.89911,-5.03612 2.21169,-8.83876 z"
       id="rect1431-8"
       inkscape:connector-curvature="0"
       sodipodi:nodetypes="cscccc" />
    <path
       style="opacity:1;fill:#ffffff;fill-opacity:1;stroke:#000000;stroke-width:1.16537988;stroke-linejoin:round;stroke-miterlimit:4;stroke-dasharray:none;stroke-opacity:1"
       d="m 204.05491,-101.35228 c 1.61096,-8.90267 5.73764,-5.99404 12.02849,-4.50423 8.19286,1.94025 8.476,5.10835 9.64812,5.912958 7.38524,0.64024 13.13913,2.342672 16.57933,5.807454 1.63239,1.644047 5.11251,6.273798 -2.36214,5.59327 -6.2528,-2.877145 -20.38611,-7.12639 -38.10549,-3.970688 -4.77533,-3.98037 -1.89911,-5.03612 2.21169,-8.838764 z"
       id="rect1431-8-3"
       inkscape:connector-curvature="0"
       sodipodi:nodetypes="cscsccc" />
    <path
       style="opacity:1;fill:#ffffff;fill-opacity:1;stroke:#000000;stroke-width:1.16537988;stroke-linejoin:round;stroke-miterlimit:4;stroke-dasharray:none;stroke-opacity:1"
       d="m 231.46654,-24.666816 c 7.12792,0.145319 10.32635,-5.473362 12.71573,-1.811808 1.93571,2.966322 5.51553,2.005263 7.08153,2.637886 6.86161,8.697741 2.79943,5.090163 5.98878,8.702794 1.53332,1.736811 2.97537,13.7746408 -4.178,11.5024448 -5.48767,-4.154632 -3.81014,-13.2150228 -21.79355,-13.9441488 -1.90721,-3.489046 -3.78234,-3.609188 0.18551,-7.087168 z"
       id="rect1431-8-3-1"
       inkscape:connector-curvature="0"
       sodipodi:nodetypes="cscsccc" />
  </g>
</svg>
