<?xml version="1.0" encoding="UTF-8" standalone="no"?>
<!-- Created with Inkscape (http://www.inkscape.org/) -->

<svg
   xmlns:dc="http://purl.org/dc/elements/1.1/"
   xmlns:cc="http://creativecommons.org/ns#"
   xmlns:rdf="http://www.w3.org/1999/02/22-rdf-syntax-ns#"
   xmlns:svg="http://www.w3.org/2000/svg"
   xmlns="http://www.w3.org/2000/svg"
   xmlns:sodipodi="http://sodipodi.sourceforge.net/DTD/sodipodi-0.dtd"
   xmlns:inkscape="http://www.inkscape.org/namespaces/inkscape"
   width="210mm"
   height="297mm"
   viewBox="0 0 210 297"
   version="1.1"
   id="svg8"
   inkscape:version="0.92.3 (2405546, 2018-03-11)"
   sodipodi:docname="etoile.svg">
  <defs
     id="defs2" />
  <sodipodi:namedview
     id="base"
     pagecolor="#ffffff"
     bordercolor="#666666"
     borderopacity="1.0"
     inkscape:pageopacity="0.0"
     inkscape:pageshadow="2"
     inkscape:zoom="0.35"
     inkscape:cx="-188.57143"
     inkscape:cy="560"
     inkscape:document-units="mm"
     inkscape:current-layer="layer1"
     showgrid="false"
     inkscape:window-width="1853"
     inkscape:window-height="1025"
     inkscape:window-x="67"
     inkscape:window-y="27"
     inkscape:window-maximized="1" />
  <metadata
     id="metadata5">
    <rdf:RDF>
      <cc:Work
         rdf:about="">
        <dc:format>image/svg+xml</dc:format>
        <dc:type
           rdf:resource="http://purl.org/dc/dcmitype/StillImage" />
        <dc:title></dc:title>
      </cc:Work>
    </rdf:RDF>
  </metadata>
  <g
     inkscape:label="Calque 1"
     inkscape:groupmode="layer"
     id="layer1">
    <path
       style="opacity:1;fill:#ffff00;fill-opacity:1;stroke:#000000;stroke-width:3.6312294;stroke-linejoin:round;stroke-miterlimit:4;stroke-dasharray:none;stroke-opacity:1"
       d="m 13.06963,134.5447 70.538355,-0.73119 c -0.115583,-3.94302 25.611225,-81.29381 15.946541,-71.17977 -0.01267,0.01261 1.611434,-1.157616 1.775984,1.860687 0.47161,8.639998 11.74898,30.763048 19.85294,66.391783 0.28811,1.26755 2.60334,-0.2393 3.92337,-0.36085 25.79381,-2.37439 55.82679,-5.16664 65.5038,-5.4039 9.04228,-0.22173 3.18578,1.93915 3.15818,2.79033 -0.0199,0.71712 -3.01065,1.41144 -3.77683,1.9605 -9.67344,6.92712 -41.7198,26.94761 -51.69042,34.91654 -1.55584,1.24353 -3.85053,1.56224 -3.6357,2.40071 6.82196,26.62716 24.83555,66.45051 27.31531,68.8446 8.82641,8.5216 -53.49945,-45.82054 -53.95688,-43.81036 113.62286,87.42218 0.6289,-0.44647 0,0 l -57.002592,40.49886 c -0.628859,0.44664 -1.687759,-0.63572 -1.423348,-1.36008 L 70.922716,172.9556 c 0.264207,-0.72444 -57.850497,-38.41098 -57.850497,-38.41098 z"
       id="rect909"
       inkscape:connector-curvature="0"
       sodipodi:nodetypes="ccsssssssssscsssscc" />
  </g>
</svg>
