<?xml version="1.0" encoding="UTF-8" standalone="no"?>
<!-- Created with Inkscape (http://www.inkscape.org/) -->

<svg
   xmlns:dc="http://purl.org/dc/elements/1.1/"
   xmlns:cc="http://creativecommons.org/ns#"
   xmlns:rdf="http://www.w3.org/1999/02/22-rdf-syntax-ns#"
   xmlns:svg="http://www.w3.org/2000/svg"
   xmlns="http://www.w3.org/2000/svg"
   xmlns:sodipodi="http://sodipodi.sourceforge.net/DTD/sodipodi-0.dtd"
   xmlns:inkscape="http://www.inkscape.org/namespaces/inkscape"
   width="420mm"
   height="594mm"
   viewBox="0 0 420 594"
   version="1.1"
   id="svg1516"
   inkscape:version="0.92.3 (2405546, 2018-03-11)"
   sodipodi:docname="houx.svg">
  <defs
     id="defs1510" />
  <sodipodi:namedview
     id="base"
     pagecolor="#ffffff"
     bordercolor="#666666"
     borderopacity="1.0"
     inkscape:pageopacity="0.0"
     inkscape:pageshadow="2"
     inkscape:zoom="0.35"
     inkscape:cx="821.10761"
     inkscape:cy="804.48962"
     inkscape:document-units="mm"
     inkscape:current-layer="layer1"
     showgrid="false"
     inkscape:window-width="1853"
     inkscape:window-height="1025"
     inkscape:window-x="67"
     inkscape:window-y="27"
     inkscape:window-maximized="1" />
  <metadata
     id="metadata1513">
    <rdf:RDF>
      <cc:Work
         rdf:about="">
        <dc:format>image/svg+xml</dc:format>
        <dc:type
           rdf:resource="http://purl.org/dc/dcmitype/StillImage" />
        <dc:title></dc:title>
      </cc:Work>
    </rdf:RDF>
  </metadata>
  <g
     inkscape:label="Calque 1"
     inkscape:groupmode="layer"
     id="layer1"
     transform="translate(0,297)">
    <g
       id="g2810"
       transform="matrix(3.3573252,0,0,3.3573252,-337.13393,631.09537)">
      <path
         sodipodi:nodetypes="cccccsssssssssccc"
         inkscape:connector-curvature="0"
         id="rect2705"
         d="m 143.4297,-197.31255 c 1.30977,3.7154 4.81572,5.89478 10.88059,6.28447 -0.82634,5.80655 3.06095,5.97409 7.20326,8.56684 0.53042,0.86083 1.55623,1.71315 0.89536,1.44327 -8.01159,-3.43656 -1.73007,8.31895 -1.86169,8.1985 -11.00523,-5.06086 -3.20344,10.18085 -5.38234,8.44038 -2.93677,-2.34583 -6.9384,-0.93749 -6.19103,7.50579 0.24049,2.71689 -3.83411,0.57426 -7.42321,-0.82252 -2.83916,-1.10492 -5.26341,4.87475 -6.1157,3.84331 -2.42602,-2.93593 -10.43064,-2.26086 -10.41788,-0.30796 6.7e-4,0.099 0.0246,-0.21644 0.16428,-0.36704 3.71704,-4.0062 -3.28329,-10.972 -0.9494,-11.19377 9.38731,-0.89203 1.3467,-10.10701 1.49132,-10.02412 6.91024,3.96053 5.23932,-6.90125 5.69692,-6.78564 3.89718,0.98467 6.26305,-9.36722 4.71451,-9.57351 9.18478,6.5373 7.32394,-0.45748 7.29496,-5.20801 z"
         style="opacity:1;fill:#008000;fill-opacity:1;stroke:#000000;stroke-width:0.47612518;stroke-linejoin:round;stroke-miterlimit:4;stroke-dasharray:none;stroke-opacity:1" />
      <path
         sodipodi:nodetypes="cccccsssssssssccc"
         inkscape:connector-curvature="0"
         id="rect2705-7"
         d="m 162.74309,-198.51468 c -3.67698,-1.41409 -7.61014,-0.1604 -11.84181,4.20163 -3.88218,-4.39632 -6.53188,-1.54713 -11.19248,-0.0774 -0.9992,-0.15493 -2.31333,0.0726 -1.67917,-0.25514 7.81323,-3.86641 -5.20752,-6.71415 -5.03049,-6.73614 10.99161,-5.09043 -5.66829,-9.04334 -2.93017,-9.57204 3.6905,-0.71258 5.21531,-4.67129 -1.6943,-9.58097 -2.22339,-1.57984 2.05078,-3.29006 5.44238,-5.11479 2.68292,-1.44346 -0.2942,-7.168 1.04367,-7.14728 3.80811,0.0589 8.48818,-6.46995 6.99391,-7.72738 -0.0756,-0.0637 0.14874,0.15915 0.17267,0.36318 0.63662,5.42778 10.47917,4.62079 9.13359,6.54059 -5.41212,7.72179 6.81684,7.58261 6.65995,7.63886 -7.49733,2.68838 1.8518,8.46456 1.46694,8.73773 -3.27794,2.32656 3.06396,10.84356 4.2257,9.79908 -10.93387,2.74723 -4.40399,5.86978 -0.7704,8.93008 z"
         style="opacity:1;fill:#008000;fill-opacity:1;stroke:#000000;stroke-width:0.47612518;stroke-linejoin:round;stroke-miterlimit:4;stroke-dasharray:none;stroke-opacity:1" />
      <path
         sodipodi:nodetypes="cccccsssssssssccc"
         inkscape:connector-curvature="0"
         id="rect2705-3"
         d="m 161.51355,-182.46124 c 1.69172,-3.55779 0.74316,-7.57546 -3.28174,-12.12897 4.68091,-3.53384 2.04315,-6.39412 0.93494,-11.15365 0.23106,-0.98437 0.1049,-2.31208 0.38309,-1.65467 3.25624,8.08657 7.09351,-4.67764 7.10187,-4.49944 4.23307,11.34939 9.45115,-4.95856 9.76844,-2.18797 0.42765,3.73426 4.25786,5.55796 9.68264,-0.95504 1.7456,-2.09578 3.12321,2.29688 4.68266,5.81835 1.2336,2.78566 7.16945,0.25603 7.04627,1.58836 -0.35062,3.7924 5.8004,8.95908 7.16864,7.56555 0.0693,-0.0706 -0.17008,0.13611 -0.37534,0.14433 -5.4606,0.21878 -5.4103,10.09422 -7.22134,8.60547 -7.2843,-5.988 -8.08274,6.21568 -8.12681,6.05493 -2.10589,-7.6813 -8.58157,1.19765 -8.82444,0.79297 -2.0685,-3.44657 -11.04649,2.22393 -10.09413,3.46229 -1.90118,-11.11224 -5.51499,-4.84088 -8.84476,-1.45252 z"
         style="opacity:1;fill:#008000;fill-opacity:1;stroke:#000000;stroke-width:0.47612518;stroke-linejoin:round;stroke-miterlimit:4;stroke-dasharray:none;stroke-opacity:1" />
      <ellipse
         ry="8.4184151"
         rx="7.3701897"
         cy="-201.89082"
         cx="157.94315"
         id="path2729"
         style="opacity:1;fill:#ff0000;fill-opacity:1;stroke:#000000;stroke-width:0.47612518;stroke-linejoin:round;stroke-miterlimit:4;stroke-dasharray:none;stroke-opacity:1" />
      <ellipse
         ry="8.4184151"
         rx="7.3701897"
         cy="-189.04744"
         cx="158.17271"
         id="path2729-2"
         style="opacity:1;fill:#ff0000;fill-opacity:1;stroke:#000000;stroke-width:0.47612518;stroke-linejoin:round;stroke-miterlimit:4;stroke-dasharray:none;stroke-opacity:1" />
      <ellipse
         ry="8.4184151"
         rx="7.3701897"
         cy="-195.45294"
         cx="146.58182"
         id="path2729-6"
         style="opacity:1;fill:#ff0000;fill-opacity:1;stroke:#000000;stroke-width:0.47612518;stroke-linejoin:round;stroke-miterlimit:4;stroke-dasharray:none;stroke-opacity:1" />
      <ellipse
         ry="0.93312865"
         rx="0.80319941"
         cy="-200.92459"
         cx="146.4894"
         id="path2776"
         style="opacity:1;fill:#ffffff;fill-opacity:1;stroke:none;stroke-width:1.18000007;stroke-linejoin:round;stroke-miterlimit:4;stroke-dasharray:none;stroke-opacity:1" />
      <ellipse
         ry="0.93312871"
         rx="0.80319941"
         cy="-194.20369"
         cx="159.19885"
         id="path2776-5"
         style="opacity:1;fill:#ffffff;fill-opacity:1;stroke:none;stroke-width:1.18000007;stroke-linejoin:round;stroke-miterlimit:4;stroke-dasharray:none;stroke-opacity:1" />
      <ellipse
         ry="0.93312871"
         rx="0.80319941"
         cy="-207.57458"
         cx="158.46652"
         id="path2776-2"
         style="opacity:1;fill:#ffffff;fill-opacity:1;stroke:none;stroke-width:1.18000007;stroke-linejoin:round;stroke-miterlimit:4;stroke-dasharray:none;stroke-opacity:1" />
    </g>
  </g>
</svg>
