<?xml version="1.0" encoding="UTF-8" standalone="no"?>
<!-- Created with Inkscape (http://www.inkscape.org/) -->

<svg
   xmlns:dc="http://purl.org/dc/elements/1.1/"
   xmlns:cc="http://creativecommons.org/ns#"
   xmlns:rdf="http://www.w3.org/1999/02/22-rdf-syntax-ns#"
   xmlns:svg="http://www.w3.org/2000/svg"
   xmlns="http://www.w3.org/2000/svg"
   xmlns:sodipodi="http://sodipodi.sourceforge.net/DTD/sodipodi-0.dtd"
   xmlns:inkscape="http://www.inkscape.org/namespaces/inkscape"
   width="311.35748mm"
   height="465.53244mm"
   viewBox="0 0 311.35748 465.53244"
   version="1.1"
   id="svg8"
   sodipodi:docname="neige.svg"
   inkscape:version="0.92.3 (2405546, 2018-03-11)">
  <defs
     id="defs2">
    <inkscape:perspective
       sodipodi:type="inkscape:persp3d"
       inkscape:vp_x="254.44059 : 166.57247 : 1"
       inkscape:vp_y="0 : 999.99998 : 0"
       inkscape:vp_z="533.32229 : 261.72041 : 1"
       inkscape:persp3d-origin="210 : 198 : 1"
       id="perspective997" />
  </defs>
  <sodipodi:namedview
     id="base"
     pagecolor="#ffffff"
     bordercolor="#666666"
     borderopacity="1.0"
     inkscape:pageopacity="0.0"
     inkscape:pageshadow="2"
     inkscape:zoom="0.52442627"
     inkscape:cx="655.53722"
     inkscape:cy="1134.5402"
     inkscape:document-units="mm"
     inkscape:current-layer="layer1"
     showgrid="false"
     inkscape:window-width="1920"
     inkscape:window-height="960"
     inkscape:window-x="0"
     inkscape:window-y="27"
     inkscape:window-maximized="1"
     fit-margin-top="0"
     fit-margin-left="0"
     fit-margin-right="0"
     fit-margin-bottom="0" />
  <metadata
     id="metadata5">
    <rdf:RDF>
      <cc:Work
         rdf:about="">
        <dc:format>image/svg+xml</dc:format>
        <dc:type
           rdf:resource="http://purl.org/dc/dcmitype/StillImage" />
        <dc:title />
      </cc:Work>
    </rdf:RDF>
  </metadata>
  <g
     inkscape:label="Calque 1"
     inkscape:groupmode="layer"
     id="layer1"
     transform="translate(-67.104948,229.76502)">
    <g
       id="g1254"
       transform="translate(-6.9503499,-36.489338)">
      <path
         id="path1017"
         d="m 199.63745,271.24152 c 0.3993,1.19787 1.86336,1.39752 1.86336,0.26619 0,-0.59893 -0.46584,-1.06477 -1.06477,-1.06477 -0.59894,0 -0.93168,0.33274 -0.79859,0.79858 z"
         inkscape:connector-curvature="0"
         style="fill:#000000;stroke:none;stroke-width:0.0665484" />
      <path
         style="opacity:1;fill:#803300;fill-opacity:1;stroke:none;stroke-width:1.22003067;stroke-linejoin:round;stroke-miterlimit:4;stroke-dasharray:none;stroke-opacity:1"
         d="m 146.2426,-7.699862 6.46737,1.65295 16.07614,5.07517 -0.90308,8.09987 -21.67489,-8.49878 z"
         id="rect1204"
         inkscape:connector-curvature="0"
         sodipodi:nodetypes="cccccc" />
      <path
         style="opacity:1;fill:#803300;fill-opacity:1;stroke:none;stroke-width:1.22003055;stroke-linejoin:round;stroke-miterlimit:4;stroke-dasharray:none;stroke-opacity:1"
         d="m 111.13729,-4.431862 -0.0179,-9.26493 c -1.93476,-2.87305 -8.21144,-9.29055 -12.15039,-13.74198 -2.98735,-3.37603 -4.34905,-5.74162 -3.07126,-3.87864 -1.55463,-4.49589 1.53232,-4.81436 4.92458,-4.85804 l 15.30612,19.63178 0.9745,9.27574 -0.004,2.9247 13.40378,2.04092 9.50825,-3.55838 3.39904,-1.23704 2.83259,-0.60213 -0.0345,6.32921 -14.77374,4.65841 -15.97162,-1.39752 -9.05057,12.378 -16.36718,6.80824 c -3.16987,-1.41277 -4.75363,-3.35433 -3.39746,-6.27585 l 17.16948,-5.25732 5.05768,-8.91749 -17.56877,-3.06123 -15.87767,-16.30972 c -0.21876,-0.56893 -1.1381,-0.90324 -1.24784,-1.37748 -0.75932,-3.2815 2.04524,-5.65016 5.49881,-1.82947 l 14.48828,14.39245 z"
         id="rect1204-7"
         inkscape:connector-curvature="0"
         sodipodi:nodetypes="ccscccccccccccccccccccsccc" />
      <path
         sodipodi:nodetypes="sssssss"
         inkscape:connector-curvature="0"
         id="path819-8"
         d="m 346.25619,121.98453 c 0,21.83971 -9.86254,38.52015 -24.38431,56.84351 -23.05584,29.09156 -58.84678,20.29362 -87.19259,18.82565 -32.10074,-1.66243 -50.73644,-0.21779 -72.20616,-16.60016 -22.20618,-16.94432 -26.14156,-47.86487 -26.14156,-66.62852 0,-45.965926 44.03177,-83.228673 98.34772,-83.228675 54.31595,-2e-6 111.57689,44.822269 111.5769,90.788195 z"
         style="opacity:1;fill:#ffffff;fill-opacity:1;stroke:#ffffff;stroke-width:1.71456647;stroke-linejoin:round;stroke-miterlimit:4;stroke-dasharray:none;stroke-opacity:1" />
      <path
         sodipodi:nodetypes="cccccccccccc"
         inkscape:connector-curvature="0"
         id="rect821-1"
         d="m 80.151105,184.90665 c 19.762781,-8.06405 14.0926,-3.75079 25.090725,2.27445 0,0 22.4799,-14.83614 27.73186,-1.5163 19.25881,-10.41085 18.95277,-10.55155 31.69356,-5.30706 45.50022,-25.32296 88.23004,-22.0608 95.08063,9.09781 7.6755,-7.11862 29.9912,-27.96219 57.44456,-4.5489 6.48356,-10.47386 18.06749,-5.33075 29.7127,0 2.89623,-3.04 4.96802,-6.75617 19.80847,0 7.68352,-2.66538 15.30575,-5.23693 17.82763,0 v 19.71192 H 80.151105 Z"
         style="opacity:1;fill:#ffffff;fill-opacity:1;stroke:#ffffff;stroke-width:1.74309754;stroke-linejoin:round;stroke-miterlimit:4;stroke-dasharray:none;stroke-opacity:1" />
      <g
         transform="translate(4.1577381,-12.85119)"
         id="g1191">
        <path
           sodipodi:nodetypes="sssssss"
           inkscape:connector-curvature="0"
           id="path819-3-0"
           d="m 290.77927,26.046357 c 0.21123,13.100868 1.82611,26.37415 -6.5125,37.092611 -11.34278,14.580018 -38.73222,24.692411 -58.44539,24.692409 -20.85312,-2e-6 -40.43309,-8.957941 -51.65652,-25.005528 -7.18628,-10.275166 -10.27755,-24.348976 -10.27755,-37.913421 0,-34.7491744 27.72883,-62.918947 61.93407,-62.918949 34.20525,-3e-6 64.3665,27.373717 64.95789,64.052878 z"
           style="opacity:1;fill:#ffffff;fill-opacity:1;stroke:#ffffff;stroke-width:1.18301773;stroke-linejoin:round;stroke-miterlimit:4;stroke-dasharray:none;stroke-opacity:1" />
        <path
           inkscape:connector-curvature="0"
           id="path824-0-0"
           d="m 242.84413,47.143929 a 8.7563896,7.7613454 0 0 1 -8.75639,7.761345 8.7563896,7.7613454 0 0 1 -8.75639,-7.761345 8.7563896,7.7613454 0 0 1 8.75639,-7.761346 8.7563896,7.7613454 0 0 1 8.75639,7.761346 z"
           style="opacity:1;fill:#000000;fill-opacity:1;stroke:#ffffff;stroke-width:0.98057628;stroke-linejoin:round;stroke-miterlimit:4;stroke-dasharray:none;stroke-opacity:1" />
        <path
           inkscape:connector-curvature="0"
           id="path824-9-8-4"
           d="m 240.17069,27.466911 a 7.1520009,6.3392735 0 0 1 -7.152,6.339274 7.1520009,6.3392735 0 0 1 -7.152,-6.339274 7.1520009,6.3392735 0 0 1 7.152,-6.339273 7.1520009,6.3392735 0 0 1 7.152,6.339273 z"
           style="opacity:1;fill:#000000;fill-opacity:1;stroke:#ffffff;stroke-width:0.80091035;stroke-linejoin:round;stroke-miterlimit:4;stroke-dasharray:none;stroke-opacity:1" />
        <path
           inkscape:connector-curvature="0"
           id="path824-5-7"
           d="m 245.90899,73.018036 a 11.977802,10.616688 0 0 1 -11.97781,10.616688 11.977802,10.616688 0 0 1 -11.9778,-10.616688 11.977802,10.616688 0 0 1 11.9778,-10.616688 11.977802,10.616688 0 0 1 11.97781,10.616688 z"
           style="opacity:1;fill:#000000;fill-opacity:1;stroke:#ffffff;stroke-width:1.34132314;stroke-linejoin:round;stroke-miterlimit:4;stroke-dasharray:none;stroke-opacity:1" />
        <path
           inkscape:connector-curvature="0"
           id="path824-09-6"
           d="m 234.76544,13.680949 a 3.9432237,3.4951301 0 0 1 -3.94322,3.49513 3.9432237,3.4951301 0 0 1 -3.94322,-3.49513 3.9432237,3.4951301 0 0 1 3.94322,-3.49513 3.9432237,3.4951301 0 0 1 3.94322,3.49513 z"
           style="opacity:1;fill:#000000;fill-opacity:1;stroke:#ffffff;stroke-width:0.4415783;stroke-linejoin:round;stroke-miterlimit:4;stroke-dasharray:none;stroke-opacity:1" />
        <path
           inkscape:connector-curvature="0"
           id="path824-9-85-3-1"
           d="m 232.45592,1.2549483 a 3.1410294,2.7840941 0 0 1 -3.14102,2.7840941 3.1410294,2.7840941 0 0 1 -3.14103,-2.7840941 3.1410294,2.7840941 0 0 1 3.14103,-2.7840941 3.1410294,2.7840941 0 0 1 3.14102,2.7840941 z"
           style="opacity:1;fill:#000000;fill-opacity:1;stroke:#ffffff;stroke-width:0.35174531;stroke-linejoin:round;stroke-miterlimit:4;stroke-dasharray:none;stroke-opacity:1" />
      </g>
      <g
         transform="translate(3.7797619,-10.96131)"
         id="g1183">
        <ellipse
           style="opacity:1;fill:#ffffff;fill-opacity:1;stroke:#ffffff;stroke-width:0.89146054;stroke-linejoin:round;stroke-miterlimit:4;stroke-dasharray:none;stroke-opacity:1"
           id="path819-9-3"
           cx="223.7619"
           cy="-52.551376"
           rx="51.134277"
           ry="43.273376" />
        <ellipse
           style="opacity:1;fill:#000000;fill-opacity:1;stroke:#ffffff;stroke-width:0.35174531;stroke-linejoin:round;stroke-miterlimit:4;stroke-dasharray:none;stroke-opacity:1"
           id="path824-9-85-4"
           cx="216.00003"
           cy="-32.084969"
           rx="3.1410294"
           ry="2.7840941" />
        <ellipse
           style="opacity:1;fill:#000000;fill-opacity:1;stroke:#ffffff;stroke-width:1.13860846;stroke-linejoin:round;stroke-miterlimit:4;stroke-dasharray:none;stroke-opacity:1"
           id="path824-9-9-4"
           cx="213.37125"
           cy="-61.550671"
           rx="10.167591"
           ry="9.0121822" />
        <ellipse
           style="opacity:1;fill:#000000;fill-opacity:1;stroke:#ffffff;stroke-width:0.67336702;stroke-linejoin:round;stroke-miterlimit:4;stroke-dasharray:none;stroke-opacity:1"
           id="path824-9-6-4"
           cx="246.51117"
           cy="-62.682312"
           rx="6.0130596"
           ry="5.3297572" />
        <ellipse
           style="opacity:1;fill:#000000;fill-opacity:1;stroke:#ffffff;stroke-width:0.35174531;stroke-linejoin:round;stroke-miterlimit:4;stroke-dasharray:none;stroke-opacity:1"
           id="path824-9-85-6-3"
           cx="252.116"
           cy="-29.851158"
           rx="3.1410294"
           ry="2.7840941" />
        <ellipse
           style="opacity:1;fill:#000000;fill-opacity:1;stroke:#ffffff;stroke-width:0.35174531;stroke-linejoin:round;stroke-miterlimit:4;stroke-dasharray:none;stroke-opacity:1"
           id="path824-9-85-8-7"
           cx="244.95735"
           cy="-28.075924"
           rx="3.1410294"
           ry="2.7840941" />
        <ellipse
           style="opacity:1;fill:#000000;fill-opacity:1;stroke:#ffffff;stroke-width:0.35174531;stroke-linejoin:round;stroke-miterlimit:4;stroke-dasharray:none;stroke-opacity:1"
           id="path824-9-85-5-5"
           cx="225.5587"
           cy="-27.758856"
           rx="3.1410294"
           ry="2.7840941" />
        <ellipse
           style="opacity:1;fill:#000000;fill-opacity:1;stroke:#ffffff;stroke-width:0.35174531;stroke-linejoin:round;stroke-miterlimit:4;stroke-dasharray:none;stroke-opacity:1"
           id="path824-9-85-61-9"
           cx="259.45407"
           cy="-32.810116"
           rx="3.1410294"
           ry="2.7840941" />
        <ellipse
           style="opacity:1;fill:#000000;fill-opacity:1;stroke:#ffffff;stroke-width:0.35174531;stroke-linejoin:round;stroke-miterlimit:4;stroke-dasharray:none;stroke-opacity:1"
           id="path824-9-85-1-6"
           cx="235.48242"
           cy="-26.239084"
           rx="3.1410294"
           ry="2.7840941" />
        <path
           style="opacity:1;fill:#f89300;fill-opacity:1;stroke:none;stroke-width:3.47628689;stroke-linejoin:round;stroke-miterlimit:4;stroke-dasharray:none;stroke-opacity:1"
           d="m 234.67672,-34.917124 c -6.73177,-2.464121 -6.28285,-7.897495 -2.61101,-8.749708 2.51055,-0.582677 1.582,-0.561983 2.51055,-0.582677 -6.275,-0.308843 -2.25266,-8.032925 8.15818,-5.882184 v 0 l 64.04073,15.094557 c 2.14129,4.620231 1.93745,8.841352 -7.23664,7.927007 z"
           id="rect917-1"
           inkscape:connector-curvature="0"
           sodipodi:nodetypes="cscccccc" />
        <ellipse
           style="opacity:1;fill:#f89300;fill-opacity:1;stroke:none;stroke-width:4.47186756;stroke-linejoin:round;stroke-miterlimit:4;stroke-dasharray:none;stroke-opacity:1"
           id="path920-7"
           cx="29.637125"
           cy="239.28493"
           rx="7.9540753"
           ry="8.8752823"
           transform="rotate(-93.136202)" />
      </g>
      <g
         transform="translate(4.8067051,-10.923959)"
         style="fill:#000000"
         id="g1170">
        <ellipse
           style="opacity:1;fill:#000000;fill-opacity:1;stroke:none;stroke-width:1.99431992;stroke-linejoin:round;stroke-miterlimit:4;stroke-dasharray:none;stroke-opacity:1"
           id="path1157"
           cx="228.03294"
           cy="-38.93708"
           rx="82.139626"
           ry="8.5860233"
           transform="rotate(-10.376679)" />
        <path
           style="opacity:1;fill:#000000;fill-opacity:1;stroke:none;stroke-width:1.86566067;stroke-linejoin:round;stroke-miterlimit:4;stroke-dasharray:none;stroke-opacity:1"
           d="m 245.62232,-131.72242 8.11297,38.338226 -61.35842,17.79887 -20.82885,11.536121 c -9.38692,-9.00508 11.91006,-23.756118 5.41662,-42.023767 l -2.49709,-5.25448 1.08764,-4.09864 -3.65881,-1.71895 0.6682,-5.03938 c -11.77961,-3.41619 -19.06063,-29.34792 -10.63082,-27.67975 l 28.96228,-19.52701 45.53177,17.74241 c 3.41863,-0.0165 1.60728,5.11339 1.60728,5.11339 l -0.92522,2.27231 -0.0897,2.07027 c 4.86277,2.65052 3.08584,3.92571 3.29241,5.55447 l 1.64365,1.19555 2.05267,1.47824 z"
           id="rect1159"
           inkscape:connector-curvature="0"
           sodipodi:nodetypes="ccccccccccccccccccc" />
        <path
           transform="matrix(0.92160454,-0.38813023,0.39466974,0.91882305,0,0)"
           style="opacity:1;fill:#000000;fill-opacity:1;stroke:none;stroke-width:1.68241203;stroke-linejoin:round;stroke-miterlimit:4;stroke-dasharray:none;stroke-opacity:1"
           d="m 203.34914,-79.472145 18.70416,-3.200734 18.58077,-1.755779 18.17006,0.498879 16.53333,1.775847 1.56837,4.029346 v 0 l 2.23709,14.534065 0.0955,13.764787 -0.70187,3.176849 -72.82799,-2.300819 -4.44933,-13.044473 -0.28694,-5.414588 0.70089,-6.726351 z"
           id="rect1164"
           inkscape:connector-curvature="0"
           sodipodi:nodetypes="ccccccccccccccc" />
      </g>
    </g>
    <path
       style="opacity:1;fill:#803300;fill-opacity:1;stroke:none;stroke-width:1.24812496;stroke-linejoin:round;stroke-miterlimit:4;stroke-dasharray:none;stroke-opacity:1"
       d="m 286.00851,-40.671915 29.84117,-12.405478 10.01059,-25.364821 c 0.0925,-0.461067 -11.33282,-5.077911 -11.14241,-6.304494 0.0319,-0.20559 -9.38735,-14.080472 -9.38735,-14.080472 1.70217,-5.18059 4.90833,-3.99479 6.16922,-2.06042 2.25474,3.459049 5.87893,13.140145 5.87893,13.140145 3.07438,1.32184 9.236,4.39167 9.32223,4.127129 1.90014,-5.829432 2.59467,-15.609398 3.9032,-18.023384 l -4.17322,-11.72653 c -0.31765,-4.09117 1.57456,-3.48635 3.19433,-3.46051 l 6.3105,15.75147 -4.19555,17.448053 10.95454,-2.066362 2.3032,-12.965457 c 2.31701,-0.04401 5.06482,-1.027931 4.72492,4.724944 l -3.52705,12.777287 -15.43923,3.393971 -10.11539,27.950327 -33.05923,15.224488 z"
       id="rect1256"
       inkscape:connector-curvature="0"
       sodipodi:nodetypes="cccsssssccccccccccccc" />
  </g>
  <g
     inkscape:groupmode="layer"
     id="layer2"
     inkscape:label="Calque 2"
     transform="translate(-67.104948,-67.234985)" />
</svg>
