<?xml version="1.0" encoding="UTF-8" standalone="no"?>
<!-- Created with Inkscape (http://www.inkscape.org/) -->

<svg
   xmlns:dc="http://purl.org/dc/elements/1.1/"
   xmlns:cc="http://creativecommons.org/ns#"
   xmlns:rdf="http://www.w3.org/1999/02/22-rdf-syntax-ns#"
   xmlns:svg="http://www.w3.org/2000/svg"
   xmlns="http://www.w3.org/2000/svg"
   xmlns:sodipodi="http://sodipodi.sourceforge.net/DTD/sodipodi-0.dtd"
   xmlns:inkscape="http://www.inkscape.org/namespaces/inkscape"
   width="241.70535mm"
   height="287.39935mm"
   viewBox="0 0 241.70535 287.39935"
   version="1.1"
   id="svg8"
   sodipodi:docname="sapin.svg"
   inkscape:version="0.92.3 (2405546, 2018-03-11)">
  <defs
     id="defs2" />
  <sodipodi:namedview
     id="base"
     pagecolor="#ffffff"
     bordercolor="#666666"
     borderopacity="1.0"
     inkscape:pageopacity="0.0"
     inkscape:pageshadow="2"
     inkscape:zoom="0.54619141"
     inkscape:cx="-36.597957"
     inkscape:cy="430.98296"
     inkscape:document-units="mm"
     inkscape:current-layer="layer1"
     showgrid="false"
     inkscape:window-width="1920"
     inkscape:window-height="960"
     inkscape:window-x="0"
     inkscape:window-y="27"
     inkscape:window-maximized="1"
     fit-margin-top="0"
     fit-margin-left="0"
     fit-margin-right="0"
     fit-margin-bottom="0" />
  <metadata
     id="metadata5">
    <rdf:RDF>
      <cc:Work
         rdf:about="">
        <dc:format>image/svg+xml</dc:format>
        <dc:type
           rdf:resource="http://purl.org/dc/dcmitype/StillImage" />
        <dc:title></dc:title>
      </cc:Work>
    </rdf:RDF>
  </metadata>
  <g
     inkscape:label="Calque 1"
     inkscape:groupmode="layer"
     id="layer1"
     transform="translate(-93.89106,96.9922)">
    <path
       style="opacity:1;fill:#552200;fill-opacity:1;stroke:#000000;stroke-width:2.08532619;stroke-linejoin:round;stroke-miterlimit:4;stroke-dasharray:none;stroke-opacity:1"
       d="m 191.20257,159.58693 44.44123,0.52481 c 2.34709,11.11928 1.04124,23.38762 23.09147,29.25274 h -88.52496 c 10.02682,-1.85602 20.71286,-14.00245 20.99226,-29.77755 z"
       id="rect903"
       inkscape:connector-curvature="0"
       sodipodi:nodetypes="ccccc" />
    <path
       style="opacity:1;fill:#008000;fill-opacity:1;stroke:#000000;stroke-width:1.90147257;stroke-linejoin:round;stroke-miterlimit:4;stroke-dasharray:none;stroke-opacity:1"
       d="m 193.56419,148.66524 c -18.94813,14.17662 -59.53013,4.94486 -69.92797,-0.77887 -17.14645,-9.43866 -33.964388,-20.20088 -27.286926,-15.24203 4.450446,3.30501 23.695136,-3.7885 41.354806,-11.25973 18.58836,-7.86413 38.13443,-30.864086 31.7056,-27.62381 -22.43697,11.30874 -57.21185,-3.841443 -53.3411,-4.00877 0.9009,-0.03894 2.03029,-0.591738 3.49412,-0.646701 11.7809,-0.44233 34.58272,-11.451279 40.1595,-15.004854 24.89504,-15.863413 34.34636,-23.918963 24.84954,-19.66564 -11.26093,5.043412 -16.87356,1.716787 -23.53909,0.178117 -7.69668,-1.7767 -19.63265,-4.626999 -16.88116,-4.871844 35.50218,-3.159193 55.139,-40.5160898 53.18799,-39.099368 -17.25737,12.531347 -41.68483,3.253258 -39.27942,2.491189 9.37613,-2.9705 36.81473,-22.7566766 43.63684,-33.860157 0.44107,-0.717852 1.86091,-2.736606 1.29228,-2.140018 -11.95181,12.53921 -25.91736,5.447352 -25.67586,5.152272 19.65944,-12.317844 24.98784,-24.527956 33.46182,-43.964162 8.24904,-19.266399 5.82837,-37.150053 6.3942,-34.074076 11.02505,59.935451 36.96647,74.763591 36.02448,77.039318 -0.60685,1.46608 -8.4324,8.8241848 -22.3846,-1.882535 -3.98734,-3.059823 28.05998,30.4924568 40.572,32.389055 9.0477,1.371467 -17.37432,12.314238 -35.29,1.365274 -1.05837,-0.646818 0.89254,2.485677 1.75485,3.814658 8.56294,13.197252 42.6883,31.269245 49.12255,30.729631 4.38395,-0.367665 -22.77141,15.450081 -43.24336,3.873913 0.98032,12.568296 50.4145,39.023043 65.92925,37.510022 1.96771,-0.191901 3.30177,0.721719 4.03085,0.530275 5.57355,-1.463563 -32.34836,13.019641 -50.4277,6.248839 -0.93192,-0.349015 -1.67887,-1.100883 -2.53982,-1.666323 -13.7509,-9.031025 34.47168,29.030635 63.26913,37.590655 17.97698,5.34365 10.48864,-1.21692 -2.43555,8.93029 l -2.87701,2.25883 c -10.92122,8.57463 -59.19557,23.94959 -84.64492,1.26593 -6.38797,-5.69376 12.103,9.29751 19.9295,11.40626 -20.63376,8.66033 -62.97088,6.37669 -74.30218,0.78721 z"
       id="rect906"
       inkscape:connector-curvature="0"
       sodipodi:nodetypes="cssssssssssssssccssssssscssssssssccc" />
    <ellipse
       style="opacity:1;fill:#ff0000;fill-opacity:1;stroke:#000000;stroke-width:1.06200004;stroke-linejoin:round;stroke-miterlimit:4;stroke-dasharray:none;stroke-opacity:1"
       id="path919"
       cx="234.34523"
       cy="-13.318467"
       rx="4.5357141"
       ry="5.6696429" />
    <ellipse
       style="opacity:1;fill:#ff0000;fill-opacity:1;stroke:#000000;stroke-width:1.06200004;stroke-linejoin:round;stroke-miterlimit:4;stroke-dasharray:none;stroke-opacity:1"
       id="path919-0"
       cx="226.21873"
       cy="-11.806548"
       rx="4.5357141"
       ry="5.6696429" />
    <ellipse
       style="opacity:1;fill:#ff0000;fill-opacity:1;stroke:#000000;stroke-width:1.06200004;stroke-linejoin:round;stroke-miterlimit:4;stroke-dasharray:none;stroke-opacity:1"
       id="path919-8"
       cx="216.76933"
       cy="-10.672619"
       rx="4.5357141"
       ry="5.6696429" />
    <ellipse
       style="opacity:1;fill:#ff0000;fill-opacity:1;stroke:#000000;stroke-width:1.06200004;stroke-linejoin:round;stroke-miterlimit:4;stroke-dasharray:none;stroke-opacity:1"
       id="path919-85"
       cx="197.30357"
       cy="-9.916667"
       rx="4.5357141"
       ry="5.6696429" />
    <ellipse
       style="opacity:1;fill:#ff0000;fill-opacity:1;stroke:#000000;stroke-width:1.06200004;stroke-linejoin:round;stroke-miterlimit:4;stroke-dasharray:none;stroke-opacity:1"
       id="path919-09"
       cx="207.13095"
       cy="-10.294643"
       rx="4.5357141"
       ry="5.6696429" />
    <ellipse
       style="opacity:1;fill:#ff0000;fill-opacity:1;stroke:#000000;stroke-width:1.06200004;stroke-linejoin:round;stroke-miterlimit:4;stroke-dasharray:none;stroke-opacity:1"
       id="path919-3"
       cx="243.98363"
       cy="57.552082"
       rx="4.5357141"
       ry="5.6696429" />
    <ellipse
       style="opacity:1;fill:#ff0000;fill-opacity:1;stroke:#000000;stroke-width:1.06200004;stroke-linejoin:round;stroke-miterlimit:4;stroke-dasharray:none;stroke-opacity:1"
       id="path919-856"
       cx="234.34525"
       cy="59.441963"
       rx="4.5357141"
       ry="5.6696429" />
    <ellipse
       style="opacity:1;fill:#ff0000;fill-opacity:1;stroke:#000000;stroke-width:1.06200004;stroke-linejoin:round;stroke-miterlimit:4;stroke-dasharray:none;stroke-opacity:1"
       id="path919-1"
       cx="224.70685"
       cy="61.898811"
       rx="4.5357141"
       ry="5.6696429" />
    <ellipse
       style="opacity:1;fill:#ff0000;fill-opacity:1;stroke:#000000;stroke-width:1.06200004;stroke-linejoin:round;stroke-miterlimit:4;stroke-dasharray:none;stroke-opacity:1"
       id="path919-15"
       cx="215.8244"
       cy="64.922615"
       rx="4.5357141"
       ry="5.6696429" />
    <ellipse
       style="opacity:1;fill:#ff0000;fill-opacity:1;stroke:#000000;stroke-width:1.06200004;stroke-linejoin:round;stroke-miterlimit:4;stroke-dasharray:none;stroke-opacity:1"
       id="path919-9"
       cx="206.56398"
       cy="64.733635"
       rx="4.5357141"
       ry="5.6696429" />
    <ellipse
       style="opacity:1;fill:#ff0000;fill-opacity:1;stroke:#000000;stroke-width:1.06200004;stroke-linejoin:round;stroke-miterlimit:4;stroke-dasharray:none;stroke-opacity:1"
       id="path919-84"
       cx="198.7581"
       cy="57.390347"
       rx="4.5357141"
       ry="5.6696429"
       transform="rotate(1.9084546)"
       inkscape:transform-center-x="-0.1889881"
       inkscape:transform-center-y="2.0788858" />
    <ellipse
       style="opacity:1;fill:#ff0000;fill-opacity:1;stroke:#000000;stroke-width:1.06200004;stroke-linejoin:round;stroke-miterlimit:4;stroke-dasharray:none;stroke-opacity:1"
       id="path919-81"
       cx="192.71936"
       cy="40.667553"
       rx="4.5357141"
       ry="5.6696429"
       transform="rotate(5.7468052)" />
    <ellipse
       style="opacity:1;fill:#ff0000;fill-opacity:1;stroke:#000000;stroke-width:1.06200004;stroke-linejoin:round;stroke-miterlimit:4;stroke-dasharray:none;stroke-opacity:1"
       id="path919-03"
       cx="257.94189"
       cy="98.360077"
       rx="4.5357141"
       ry="5.6696429" />
    <ellipse
       style="opacity:1;fill:#ff0000;fill-opacity:1;stroke:#000000;stroke-width:1.06200004;stroke-linejoin:round;stroke-miterlimit:4;stroke-dasharray:none;stroke-opacity:1"
       id="path919-4"
       cx="191.04439"
       cy="20.064672"
       rx="4.5357141"
       ry="5.6696429"
       transform="rotate(28.116257)" />
    <ellipse
       style="opacity:1;fill:#ff0000;fill-opacity:1;stroke:#000000;stroke-width:1.06200004;stroke-linejoin:round;stroke-miterlimit:4;stroke-dasharray:none;stroke-opacity:1"
       id="path919-44"
       cx="249.897"
       cy="102.69506"
       rx="4.5357141"
       ry="5.6696429" />
    <ellipse
       style="opacity:1;fill:#ff0000;fill-opacity:1;stroke:#000000;stroke-width:1.06200004;stroke-linejoin:round;stroke-miterlimit:4;stroke-dasharray:none;stroke-opacity:1"
       id="path919-7"
       cx="241.34438"
       cy="106.43683"
       rx="4.5357141"
       ry="5.6696429" />
    <ellipse
       style="opacity:1;fill:#ff0000;fill-opacity:1;stroke:#000000;stroke-width:1.06200004;stroke-linejoin:round;stroke-miterlimit:4;stroke-dasharray:none;stroke-opacity:1"
       id="path919-6"
       cx="232.2572"
       cy="109.91132"
       rx="4.5357141"
       ry="5.6696429" />
    <ellipse
       style="opacity:1;fill:#ff0000;fill-opacity:1;stroke:#000000;stroke-width:1.06200004;stroke-linejoin:round;stroke-miterlimit:4;stroke-dasharray:none;stroke-opacity:1"
       id="path919-31"
       cx="222.63551"
       cy="113.11856"
       rx="4.5357141"
       ry="5.6696429" />
    <ellipse
       style="opacity:1;fill:#ff0000;fill-opacity:1;stroke:#000000;stroke-width:1.06200004;stroke-linejoin:round;stroke-miterlimit:4;stroke-dasharray:none;stroke-opacity:1"
       id="path919-75"
       cx="202.32301"
       cy="115.52398"
       rx="4.5357141"
       ry="5.6696429" />
    <ellipse
       style="opacity:1;fill:#ff0000;fill-opacity:1;stroke:#000000;stroke-width:1.06200004;stroke-linejoin:round;stroke-miterlimit:4;stroke-dasharray:none;stroke-opacity:1"
       id="path919-96"
       cx="212.21201"
       cy="114.98945"
       rx="4.5357141"
       ry="5.6696429" />
    <ellipse
       style="opacity:1;fill:#ff0000;fill-opacity:1;stroke:#000000;stroke-width:1.06200004;stroke-linejoin:round;stroke-miterlimit:4;stroke-dasharray:none;stroke-opacity:1"
       id="path919-2"
       cx="192.9686"
       cy="117.39487"
       rx="4.5357141"
       ry="5.6696429" />
    <ellipse
       style="opacity:1;fill:#ff0000;fill-opacity:1;stroke:#000000;stroke-width:1.06200004;stroke-linejoin:round;stroke-miterlimit:4;stroke-dasharray:none;stroke-opacity:1"
       id="path919-17"
       cx="183.88142"
       cy="118.73122"
       rx="4.5357141"
       ry="5.6696429" />
    <ellipse
       style="opacity:1;fill:#ff0000;fill-opacity:1;stroke:#000000;stroke-width:1.06200004;stroke-linejoin:round;stroke-miterlimit:4;stroke-dasharray:none;stroke-opacity:1"
       id="path919-857"
       cx="192.58423"
       cy="83.08773"
       rx="4.5357141"
       ry="5.6696429"
       transform="rotate(10.610409)"
       inkscape:transform-center-x="0.26726953"
       inkscape:transform-center-y="4.0090597" />
    <ellipse
       style="opacity:1;fill:#ff0000;fill-opacity:1;stroke:#000000;stroke-width:1.06200004;stroke-linejoin:round;stroke-miterlimit:4;stroke-dasharray:none;stroke-opacity:1"
       id="path919-318"
       cx="191.32394"
       cy="60.912521"
       rx="4.5357141"
       ry="5.6696429"
       transform="rotate(16.721951)" />
    <ellipse
       style="opacity:1;fill:#ffff00;fill-opacity:1;stroke:#000000;stroke-width:0.86778915;stroke-linejoin:round;stroke-miterlimit:4;stroke-dasharray:none;stroke-opacity:1"
       id="path919-964"
       cx="226.04814"
       cy="-53.194942"
       rx="3.7062557"
       ry="4.6328197" />
    <ellipse
       style="opacity:1;fill:#ffff00;fill-opacity:1;stroke:#000000;stroke-width:0.86778915;stroke-linejoin:round;stroke-miterlimit:4;stroke-dasharray:none;stroke-opacity:1"
       id="path919-964-3"
       cx="219.22618"
       cy="-50.360123"
       rx="3.7062557"
       ry="4.6328201" />
    <ellipse
       style="opacity:1;fill:#ffff00;fill-opacity:1;stroke:#000000;stroke-width:0.86778915;stroke-linejoin:round;stroke-miterlimit:4;stroke-dasharray:none;stroke-opacity:1"
       id="path919-964-33"
       cx="212.42262"
       cy="-46.769344"
       rx="3.7062557"
       ry="4.6328201" />
    <ellipse
       style="opacity:1;fill:#ffff00;fill-opacity:1;stroke:#000000;stroke-width:0.86778915;stroke-linejoin:round;stroke-miterlimit:4;stroke-dasharray:none;stroke-opacity:1"
       id="path919-964-8"
       cx="199.56812"
       cy="-63.900764"
       rx="3.7062557"
       ry="4.6328201"
       transform="rotate(5.8635615)" />
    <ellipse
       style="opacity:1;fill:#ffff00;fill-opacity:1;stroke:#000000;stroke-width:0.86778915;stroke-linejoin:round;stroke-miterlimit:4;stroke-dasharray:none;stroke-opacity:1"
       id="path919-964-6"
       cx="244.92857"
       cy="-24.090775"
       rx="3.7062557"
       ry="4.6328201" />
    <ellipse
       style="opacity:1;fill:#ffff00;fill-opacity:1;stroke:#000000;stroke-width:0.86778915;stroke-linejoin:round;stroke-miterlimit:4;stroke-dasharray:none;stroke-opacity:1"
       id="path919-964-0"
       cx="237.93602"
       cy="-20.877977"
       rx="3.7062557"
       ry="4.6328201" />
    <ellipse
       style="opacity:1;fill:#ffff00;fill-opacity:1;stroke:#000000;stroke-width:0.86778915;stroke-linejoin:round;stroke-miterlimit:4;stroke-dasharray:none;stroke-opacity:1"
       id="path919-964-4"
       cx="231.51042"
       cy="-16.342262"
       rx="3.7062557"
       ry="4.6328201" />
    <ellipse
       style="opacity:1;fill:#ffff00;fill-opacity:1;stroke:#000000;stroke-width:0.86778915;stroke-linejoin:round;stroke-miterlimit:4;stroke-dasharray:none;stroke-opacity:1"
       id="path919-964-88"
       cx="225.27382"
       cy="-12.184525"
       rx="3.7062557"
       ry="4.6328201" />
    <ellipse
       style="opacity:1;fill:#ffff00;fill-opacity:1;stroke:#000000;stroke-width:0.86778915;stroke-linejoin:round;stroke-miterlimit:4;stroke-dasharray:none;stroke-opacity:1"
       id="path919-964-89"
       cx="219.38274"
       cy="-7.4139652"
       rx="3.7062557"
       ry="4.6328201" />
    <ellipse
       style="opacity:1;fill:#ffff00;fill-opacity:1;stroke:#000000;stroke-width:0.86778915;stroke-linejoin:round;stroke-miterlimit:4;stroke-dasharray:none;stroke-opacity:1"
       id="path919-964-7"
       cx="212.98959"
       cy="-4.4360123"
       rx="3.7062557"
       ry="4.6328201" />
    <ellipse
       style="opacity:1;fill:#ffff00;fill-opacity:1;stroke:#000000;stroke-width:0.86778915;stroke-linejoin:round;stroke-miterlimit:4;stroke-dasharray:none;stroke-opacity:1"
       id="path919-964-76"
       cx="205.80803"
       cy="-1.9791669"
       rx="3.7062557"
       ry="4.6328201" />
    <ellipse
       style="opacity:1;fill:#ffff00;fill-opacity:1;stroke:#000000;stroke-width:0.86778915;stroke-linejoin:round;stroke-miterlimit:4;stroke-dasharray:none;stroke-opacity:1"
       id="path919-964-43"
       cx="197.90295"
       cy="-0.18099818"
       rx="3.7062557"
       ry="4.6328201" />
    <ellipse
       style="opacity:1;fill:#ffff00;fill-opacity:1;stroke:#000000;stroke-width:0.86778915;stroke-linejoin:round;stroke-miterlimit:4;stroke-dasharray:none;stroke-opacity:1"
       id="path919-964-03"
       cx="190.73547"
       cy="-14.214848"
       rx="3.7062557"
       ry="4.6328201"
       transform="rotate(4.8015746)" />
    <ellipse
       style="opacity:1;fill:#ffff00;fill-opacity:1;stroke:#000000;stroke-width:0.86778915;stroke-linejoin:round;stroke-miterlimit:4;stroke-dasharray:none;stroke-opacity:1"
       id="path919-964-09"
       cx="177.61685"
       cy="-45.53828"
       rx="3.7062557"
       ry="4.6328201"
       transform="rotate(15)" />
    <ellipse
       style="opacity:1;fill:#ffff00;fill-opacity:1;stroke:#000000;stroke-width:0.86778915;stroke-linejoin:round;stroke-miterlimit:4;stroke-dasharray:none;stroke-opacity:1"
       id="path919-964-2"
       cx="248.67441"
       cy="32.951206"
       rx="3.7062557"
       ry="4.6328201" />
    <ellipse
       style="opacity:1;fill:#ffff00;fill-opacity:1;stroke:#000000;stroke-width:0.86778915;stroke-linejoin:round;stroke-miterlimit:4;stroke-dasharray:none;stroke-opacity:1"
       id="path919-964-5"
       cx="243.88344"
       cy="39.886715"
       rx="3.7062557"
       ry="4.6328201" />
    <ellipse
       style="opacity:1;fill:#ffff00;fill-opacity:1;stroke:#000000;stroke-width:0.86778915;stroke-linejoin:round;stroke-miterlimit:4;stroke-dasharray:none;stroke-opacity:1"
       id="path919-964-40"
       cx="217.5574"
       cy="58.194679"
       rx="3.7062557"
       ry="4.6328201" />
    <ellipse
       style="opacity:1;fill:#ffff00;fill-opacity:1;stroke:#000000;stroke-width:0.86778915;stroke-linejoin:round;stroke-miterlimit:4;stroke-dasharray:none;stroke-opacity:1"
       id="path919-964-59"
       cx="224.90732"
       cy="55.655617"
       rx="3.7062557"
       ry="4.6328201" />
    <ellipse
       style="opacity:1;fill:#ffff00;fill-opacity:1;stroke:#000000;stroke-width:0.86778915;stroke-linejoin:round;stroke-miterlimit:4;stroke-dasharray:none;stroke-opacity:1"
       id="path919-964-46"
       cx="267.76065"
       cy="77.976547"
       rx="3.7062557"
       ry="4.6328201" />
    <ellipse
       style="opacity:1;fill:#ffff00;fill-opacity:1;stroke:#000000;stroke-width:0.90212113;stroke-linejoin:round;stroke-miterlimit:4;stroke-dasharray:none;stroke-opacity:1"
       id="path919-964-9"
       cx="210.104"
       cy="61.602364"
       rx="3.8528845"
       ry="4.8161063" />
    <ellipse
       style="opacity:1;fill:#ffff00;fill-opacity:1;stroke:#000000;stroke-width:0.86778915;stroke-linejoin:round;stroke-miterlimit:4;stroke-dasharray:none;stroke-opacity:1"
       id="path919-964-22"
       cx="202.32303"
       cy="65.01004"
       rx="3.7062557"
       ry="4.6328201" />
    <ellipse
       style="opacity:1;fill:#ffff00;fill-opacity:1;stroke:#000000;stroke-width:0.86778915;stroke-linejoin:round;stroke-miterlimit:4;stroke-dasharray:none;stroke-opacity:1"
       id="path919-964-47"
       cx="195.10675"
       cy="67.816376"
       rx="3.7062557"
       ry="4.6328201" />
    <ellipse
       style="opacity:1;fill:#ffff00;fill-opacity:1;stroke:#000000;stroke-width:0.86778915;stroke-linejoin:round;stroke-miterlimit:4;stroke-dasharray:none;stroke-opacity:1"
       id="path919-964-75"
       cx="186.95502"
       cy="69.286362"
       rx="3.7062557"
       ry="4.6328201" />
    <ellipse
       style="opacity:1;fill:#ffff00;fill-opacity:1;stroke:#000000;stroke-width:0.86778915;stroke-linejoin:round;stroke-miterlimit:4;stroke-dasharray:none;stroke-opacity:1"
       id="path919-964-1"
       cx="179.20422"
       cy="69.687263"
       rx="3.7062557"
       ry="4.6328201" />
    <ellipse
       style="opacity:1;fill:#ffff00;fill-opacity:1;stroke:#000000;stroke-width:0.86778915;stroke-linejoin:round;stroke-miterlimit:4;stroke-dasharray:none;stroke-opacity:1"
       id="path919-964-28"
       cx="171.31976"
       cy="69.553635"
       rx="3.7062557"
       ry="4.6328201" />
    <ellipse
       style="opacity:1;fill:#ffff00;fill-opacity:1;stroke:#000000;stroke-width:0.86778915;stroke-linejoin:round;stroke-miterlimit:4;stroke-dasharray:none;stroke-opacity:1"
       id="path919-964-93"
       cx="231.85631"
       cy="50.042953"
       rx="3.7062557"
       ry="4.6328201" />
    <ellipse
       style="opacity:1;fill:#ffff00;fill-opacity:1;stroke:#000000;stroke-width:0.86778915;stroke-linejoin:round;stroke-miterlimit:4;stroke-dasharray:none;stroke-opacity:1"
       id="path919-964-68"
       cx="238.53806"
       cy="45.633007"
       rx="3.7062557"
       ry="4.6328201" />
    <ellipse
       style="opacity:1;fill:#ffff00;fill-opacity:1;stroke:#000000;stroke-width:0.86778915;stroke-linejoin:round;stroke-miterlimit:4;stroke-dasharray:none;stroke-opacity:1"
       id="path919-964-02"
       cx="261.9375"
       cy="84.199402"
       rx="3.7062557"
       ry="4.6328201" />
    <ellipse
       style="opacity:1;fill:#ffff00;fill-opacity:1;stroke:#000000;stroke-width:0.86778915;stroke-linejoin:round;stroke-miterlimit:4;stroke-dasharray:none;stroke-opacity:1"
       id="path919-964-10"
       cx="255.88989"
       cy="90.058037"
       rx="3.7062557"
       ry="4.6328201" />
    <ellipse
       style="opacity:1;fill:#ffff00;fill-opacity:1;stroke:#000000;stroke-width:0.86778915;stroke-linejoin:round;stroke-miterlimit:4;stroke-dasharray:none;stroke-opacity:1"
       id="path919-964-51"
       cx="236.80208"
       cy="106.12202"
       rx="3.7062557"
       ry="4.6328201" />
    <ellipse
       style="opacity:1;fill:#ffff00;fill-opacity:1;stroke:#000000;stroke-width:0.86778915;stroke-linejoin:round;stroke-miterlimit:4;stroke-dasharray:none;stroke-opacity:1"
       id="path919-964-108"
       cx="223.7619"
       cy="114.81548"
       rx="3.7062557"
       ry="4.6328201" />
    <ellipse
       style="opacity:1;fill:#ffff00;fill-opacity:1;stroke:#000000;stroke-width:0.86778915;stroke-linejoin:round;stroke-miterlimit:4;stroke-dasharray:none;stroke-opacity:1"
       id="path919-964-50"
       cx="216.0134"
       cy="117.83929"
       rx="3.7062557"
       ry="4.6328201" />
    <ellipse
       style="opacity:1;fill:#ffff00;fill-opacity:1;stroke:#000000;stroke-width:0.86778915;stroke-linejoin:round;stroke-miterlimit:4;stroke-dasharray:none;stroke-opacity:1"
       id="path919-964-62"
       cx="185.39731"
       cy="123.31994"
       rx="3.7062557"
       ry="4.6328201" />
    <ellipse
       style="opacity:1;fill:#ffff00;fill-opacity:1;stroke:#000000;stroke-width:0.86778915;stroke-linejoin:round;stroke-miterlimit:4;stroke-dasharray:none;stroke-opacity:1"
       id="path919-964-58"
       cx="178.40477"
       cy="124.07589"
       rx="3.7062557"
       ry="4.6328201" />
    <ellipse
       style="opacity:1;fill:#ffff00;fill-opacity:1;stroke:#000000;stroke-width:0.86778915;stroke-linejoin:round;stroke-miterlimit:4;stroke-dasharray:none;stroke-opacity:1"
       id="path919-964-628"
       cx="189.38663"
       cy="93.859291"
       rx="3.7062557"
       ry="4.6328201"
       transform="rotate(9.7089899)" />
    <ellipse
       style="opacity:1;fill:#ffff00;fill-opacity:1;stroke:#000000;stroke-width:0.86778915;stroke-linejoin:round;stroke-miterlimit:4;stroke-dasharray:none;stroke-opacity:1"
       id="path919-964-472"
       cx="167.52524"
       cy="108.86679"
       rx="3.7062557"
       ry="4.6328201"
       transform="rotate(5.8588647)" />
    <ellipse
       style="opacity:1;fill:#ffff00;fill-opacity:1;stroke:#000000;stroke-width:0.86778915;stroke-linejoin:round;stroke-miterlimit:4;stroke-dasharray:none;stroke-opacity:1"
       id="path919-964-29"
       cx="164.07109"
       cy="88.953133"
       rx="3.7062557"
       ry="4.6328201"
       transform="rotate(12.738631)" />
    <ellipse
       style="opacity:1;fill:#ffff00;fill-opacity:1;stroke:#000000;stroke-width:0.86778915;stroke-linejoin:round;stroke-miterlimit:4;stroke-dasharray:none;stroke-opacity:1"
       id="path919-964-90"
       cx="164.39174"
       cy="101.97963"
       rx="3.7062557"
       ry="4.6328201"
       transform="rotate(8.3733891)" />
    <ellipse
       style="opacity:1;fill:#ffff00;fill-opacity:1;stroke:#000000;stroke-width:0.86778915;stroke-linejoin:round;stroke-miterlimit:4;stroke-dasharray:none;stroke-opacity:1"
       id="path919-964-81"
       cx="189.27975"
       cy="80.024529"
       rx="3.7062557"
       ry="4.6328201"
       transform="rotate(14.553877)" />
    <ellipse
       style="opacity:1;fill:#ffff00;fill-opacity:1;stroke:#000000;stroke-width:0.86778915;stroke-linejoin:round;stroke-miterlimit:4;stroke-dasharray:none;stroke-opacity:1"
       id="path919-964-31"
       cx="193.33482"
       cy="122.75298"
       rx="3.7062557"
       ry="4.6328201" />
    <ellipse
       style="opacity:1;fill:#ffff00;fill-opacity:1;stroke:#000000;stroke-width:0.86778915;stroke-linejoin:round;stroke-miterlimit:4;stroke-dasharray:none;stroke-opacity:1"
       id="path919-964-103"
       cx="200.89435"
       cy="121.99702"
       rx="3.7062557"
       ry="4.6328201" />
    <ellipse
       style="opacity:1;fill:#ffff00;fill-opacity:1;stroke:#000000;stroke-width:0.86778915;stroke-linejoin:round;stroke-miterlimit:4;stroke-dasharray:none;stroke-opacity:1"
       id="path919-964-403"
       cx="208.45387"
       cy="119.72916"
       rx="3.7062557"
       ry="4.6328201" />
    <ellipse
       style="opacity:1;fill:#ffff00;fill-opacity:1;stroke:#000000;stroke-width:0.86778915;stroke-linejoin:round;stroke-miterlimit:4;stroke-dasharray:none;stroke-opacity:1"
       id="path919-964-91"
       cx="230.37648"
       cy="110.46875"
       rx="3.7062557"
       ry="4.6328201" />
    <ellipse
       style="opacity:1;fill:#ffff00;fill-opacity:1;stroke:#000000;stroke-width:0.86778915;stroke-linejoin:round;stroke-miterlimit:4;stroke-dasharray:none;stroke-opacity:1"
       id="path919-964-96"
       cx="250.40923"
       cy="96.294647"
       rx="3.7062557"
       ry="4.6328201" />
    <ellipse
       style="opacity:1;fill:#ffff00;fill-opacity:1;stroke:#000000;stroke-width:0.86778915;stroke-linejoin:round;stroke-miterlimit:4;stroke-dasharray:none;stroke-opacity:1"
       id="path919-964-933"
       cx="243.41667"
       cy="101.20834"
       rx="3.7062557"
       ry="4.6328201" />
    <path
       style="opacity:1;fill:#00ffff;fill-opacity:1;stroke:#000000;stroke-width:0.33734092;stroke-linejoin:round;stroke-miterlimit:4;stroke-dasharray:none;stroke-opacity:1"
       d="m 213.78742,-73.643054 3.70017,0.958247 c 0.0504,-0.207674 2.48815,-3.890647 1.83972,-3.498116 -8.7e-4,4.95e-4 0.10067,-0.0378 0.0666,0.122414 -0.0973,0.458643 0.18,1.775181 0.10056,3.753393 -0.003,0.07036 0.13956,0.02426 0.21033,0.03657 1.38279,0.240181 2.99325,0.518393 3.50282,0.642692 0.47611,0.116159 0.13924,0.146446 0.12579,0.190576 -0.0112,0.03723 -0.17744,0.0313 -0.22526,0.0492 -0.60388,0.225698 -2.56305,0.820247 -3.19718,1.096248 -0.099,0.04305 -0.22349,0.02732 -0.2241,0.07423 -0.0194,1.489232 0.36038,3.826852 0.45629,3.987119 0.34132,0.570456 -2.15125,-3.152646 -2.20357,-3.053954 4.70858,6.178175 0.0392,-0.01445 0,0 l -3.55391,1.313213 c -0.0393,0.01446 -0.0794,-0.05712 -0.0552,-0.09124 l 1.94057,-2.754005 c 0.0242,-0.03411 -2.48351,-2.826518 -2.48351,-2.826518 z"
       id="rect909-8"
       inkscape:connector-curvature="0"
       sodipodi:nodetypes="ccsssssssssscsssscc" />
    <path
       style="opacity:1;fill:#00ffff;fill-opacity:1;stroke:#000000;stroke-width:0.33734095;stroke-linejoin:round;stroke-miterlimit:4;stroke-dasharray:none;stroke-opacity:1"
       d="m 207.77935,-57.306233 3.1258,2.199735 c 0.12033,-0.176631 3.69874,-2.765401 2.95362,-2.626325 -0.001,1.59e-4 0.10753,6.4e-5 0.0192,0.138018 -0.25257,0.395017 -0.45659,1.724885 -1.22749,3.54844 -0.0276,0.06484 0.12208,0.07189 0.18398,0.108317 1.20967,0.711688 2.61904,1.539135 3.0522,1.834897 0.40473,0.276362 0.0788,0.186099 0.0506,0.222663 -0.0236,0.03087 -0.1771,-0.03318 -0.22817,-0.03322 -0.64467,-0.0014 -2.68772,-0.134753 -3.37842,-0.09971 -0.1078,0.0054 -0.21879,-0.05314 -0.23588,-0.0095 -0.54253,1.387039 -1.01015,3.708682 -0.97682,3.892448 0.1186,0.654108 -0.90342,-3.708213 -0.98714,-3.634265 2.23168,7.44044 0.0418,2.59e-4 0,0 l -3.78871,-0.02224 c -0.0419,-2.73e-4 -0.0542,-0.0814 -0.0195,-0.104792 l 2.786,-1.894347 c 0.0346,-0.02339 -1.32923,-3.519969 -1.32923,-3.519969 z"
       id="rect909-8-8"
       inkscape:connector-curvature="0"
       sodipodi:nodetypes="ccsssssssssscsssscc" />
    <path
       style="opacity:1;fill:#00ffff;fill-opacity:1;stroke:#000000;stroke-width:0.33734095;stroke-linejoin:round;stroke-miterlimit:4;stroke-dasharray:none;stroke-opacity:1"
       d="m 215.39461,-52.296793 3.70017,0.95825 c 0.0504,-0.20768 2.48815,-3.89065 1.83972,-3.49812 -8.8e-4,5e-4 0.10067,-0.0378 0.0666,0.12241 -0.0973,0.45865 0.18,1.77519 0.10056,3.7534 -0.003,0.0704 0.13956,0.0243 0.21033,0.0366 1.38279,0.24018 2.99325,0.51839 3.50282,0.64269 0.47611,0.11616 0.13924,0.14645 0.12579,0.19058 -0.0112,0.0372 -0.17744,0.0313 -0.22526,0.0492 -0.60388,0.22569 -2.56305,0.82024 -3.19718,1.09624 -0.099,0.043 -0.22349,0.0273 -0.2241,0.0742 -0.0194,1.48924 0.36038,3.82686 0.45629,3.98712 0.34132,0.57046 -2.15125,-3.15264 -2.20357,-3.05395 4.70858,6.17817 0.0392,-0.0145 0,0 l -3.55391,1.31321 c -0.0393,0.0145 -0.0794,-0.0571 -0.0552,-0.0912 l 1.94057,-2.754 c 0.0242,-0.0341 -2.48351,-2.82652 -2.48351,-2.82652 z"
       id="rect909-8-5"
       inkscape:connector-curvature="0"
       sodipodi:nodetypes="ccsssssssssscsssscc" />
    <path
       style="opacity:1;fill:#00ffff;fill-opacity:1;stroke:#000000;stroke-width:0.33734095;stroke-linejoin:round;stroke-miterlimit:4;stroke-dasharray:none;stroke-opacity:1"
       d="m 208.64592,-22.49635 3.70017,0.95825 c 0.0504,-0.20768 2.48815,-3.89065 1.83972,-3.49812 -8.7e-4,5e-4 0.10067,-0.0378 0.0666,0.12241 -0.0973,0.45865 0.18,1.77519 0.10056,3.7534 -0.003,0.0704 0.13956,0.0243 0.21033,0.0366 1.38279,0.24018 2.99325,0.51839 3.50282,0.64269 0.47611,0.11616 0.13924,0.14645 0.12579,0.19058 -0.0112,0.0372 -0.17744,0.0313 -0.22526,0.0492 -0.60388,0.22569 -2.56305,0.82024 -3.19718,1.09624 -0.099,0.043 -0.22349,0.0273 -0.2241,0.0742 -0.0194,1.48924 0.36038,3.82686 0.45629,3.98712 0.34132,0.57046 -2.15125,-3.15264 -2.20357,-3.05395 4.70858,6.17817 0.0392,-0.0145 0,0 l -3.55391,1.31321 c -0.0393,0.0145 -0.0794,-0.0571 -0.0552,-0.0912 l 1.94057,-2.754 c 0.0242,-0.0341 -2.48351,-2.82652 -2.48351,-2.82652 z"
       id="rect909-8-0"
       inkscape:connector-curvature="0"
       sodipodi:nodetypes="ccsssssssssscsssscc" />
    <path
       style="opacity:1;fill:#00ffff;fill-opacity:1;stroke:#000000;stroke-width:0.33734095;stroke-linejoin:round;stroke-miterlimit:4;stroke-dasharray:none;stroke-opacity:1"
       d="m 199.50096,-25.344243 3.61253,1.248667 c 0.0667,-0.203029 2.78885,-3.681078 2.11134,-3.341207 -9.1e-4,4.29e-4 0.10335,-0.0297 0.0567,0.127306 -0.13337,0.449489 0.0386,1.783874 -0.19741,3.749554 -0.009,0.06994 0.13719,0.03529 0.20676,0.05316 1.35939,0.349083 2.94271,0.754132 3.44082,0.918451 0.4654,0.153551 0.12719,0.157031 0.11028,0.199955 -0.0141,0.03619 -0.17936,0.01713 -0.22845,0.03118 -0.61988,0.17709 -2.62003,0.614399 -3.27405,0.839241 -0.10209,0.03501 -0.22495,0.0095 -0.22927,0.05619 -0.13745,1.483011 0.0558,3.843386 0.13866,4.010748 0.295,0.595731 -1.89446,-3.313312 -1.95445,-3.219082 4.20381,6.532117 0.0402,-0.01135 0,0 l -3.64685,1.027237 c -0.0403,0.01134 -0.0746,-0.06322 -0.0478,-0.09529 l 2.15286,-2.591433 c 0.0268,-0.03207 -2.25153,-3.014568 -2.25153,-3.014568 z"
       id="rect909-8-9"
       inkscape:connector-curvature="0"
       sodipodi:nodetypes="ccsssssssssscsssscc" />
    <path
       style="opacity:1;fill:#00ffff;fill-opacity:1;stroke:#000000;stroke-width:0.33734095;stroke-linejoin:round;stroke-miterlimit:4;stroke-dasharray:none;stroke-opacity:1"
       d="m 191.46836,-30.755951 3.1104,2.221467 c 0.12154,-0.175789 3.71791,-2.739556 2.97184,-2.605676 -9.9e-4,1.55e-4 0.10753,8.18e-4 0.0183,0.138151 -0.2553,0.393248 -0.46859,1.721662 -1.25217,3.5398 -0.028,0.06464 0.12156,0.07273 0.18321,0.109598 1.20468,0.720102 2.60825,1.55735 3.03934,1.856123 0.40279,0.279178 0.0775,0.186644 0.0491,0.223016 -0.0238,0.03071 -0.17687,-0.03441 -0.22792,-0.03488 -0.64464,-0.0059 -2.68671,-0.153481 -3.37765,-0.123252 -0.10783,0.0046 -0.21841,-0.05466 -0.2358,-0.0111 -0.55218,1.383225 -1.03598,3.70155 -1.00393,3.885545 0.11405,0.654921 -0.87755,-3.714418 -0.96177,-3.641056 2.17976,7.455813 0.0418,5.28e-4 0,0 l -3.78847,-0.04865 c -0.0419,-5.4e-4 -0.0537,-0.08178 -0.0188,-0.104929 l 2.79913,-1.874886 c 0.0348,-0.02316 -1.30467,-3.529147 -1.30467,-3.529147 z"
       id="rect909-8-6"
       inkscape:connector-curvature="0"
       sodipodi:nodetypes="ccsssssssssscsssscc"
       inkscape:transform-center-x="-0.21967143"
       inkscape:transform-center-y="0.4681196" />
    <path
       style="opacity:1;fill:#00ffff;fill-opacity:1;stroke:#000000;stroke-width:0.33734095;stroke-linejoin:round;stroke-miterlimit:4;stroke-dasharray:none;stroke-opacity:1"
       d="m 223.98289,-50.302086 3.78072,0.561848 c 0.0282,-0.211843 2.06305,-4.131812 1.45973,-3.672954 -8.1e-4,5.89e-4 0.0961,-0.04823 0.0792,0.114686 -0.0483,0.466365 0.3666,1.746227 0.49666,3.721755 0.004,0.07032 0.14135,0.0094 0.21302,0.01417 1.40043,0.0927 3.03127,0.199159 3.55113,0.268911 0.48572,0.06519 0.15393,0.130915 0.14522,0.176219 -0.007,0.03817 -0.17314,0.04988 -0.2188,0.07273 -0.57664,0.288245 -2.46201,1.086512 -3.06342,1.427981 -0.0939,0.05322 -0.21936,0.05077 -0.21501,0.09747 0.1381,1.48295 0.76279,3.767345 0.8751,3.916571 0.3997,0.531195 -2.47238,-2.90764 -2.51397,-2.803973 5.33512,5.645967 0.0375,-0.01856 0,0 l -3.39523,1.681435 c -0.0376,0.01857 -0.085,-0.04839 -0.0645,-0.08486 l 1.63866,-2.943658 c 0.0205,-0.03647 -2.76831,-2.548233 -2.76831,-2.548233 z"
       id="rect909-8-3"
       inkscape:connector-curvature="0"
       sodipodi:nodetypes="ccsssssssssscsssscc" />
    <path
       style="opacity:1;fill:#00ffff;fill-opacity:1;stroke:#000000;stroke-width:0.33734095;stroke-linejoin:round;stroke-miterlimit:4;stroke-dasharray:none;stroke-opacity:1"
       d="m 218.40139,-20.424902 3.70017,0.95825 c 0.0504,-0.20768 2.48815,-3.89065 1.83972,-3.49812 -8.7e-4,5e-4 0.10067,-0.0378 0.0666,0.12241 -0.0973,0.45865 0.18,1.77519 0.10056,3.7534 -0.003,0.0704 0.13956,0.0243 0.21033,0.0366 1.38279,0.24018 2.99325,0.51839 3.50282,0.64269 0.47611,0.11616 0.13924,0.14645 0.12579,0.19058 -0.0112,0.0372 -0.17744,0.0313 -0.22526,0.0492 -0.60388,0.22569 -2.56305,0.82024 -3.19718,1.09624 -0.099,0.043 -0.22349,0.0273 -0.2241,0.0742 -0.0194,1.48924 0.36038,3.82686 0.45629,3.98712 0.34132,0.57046 -2.15125,-3.15264 -2.20357,-3.05395 4.70858,6.1781701 0.0392,-0.0145 0,0 l -3.55391,1.31321 c -0.0393,0.0145 -0.0794,-0.0571 -0.0552,-0.0912 l 1.94057,-2.754 c 0.0242,-0.0341 -2.48351,-2.82652 -2.48351,-2.82652 z"
       id="rect909-8-85"
       inkscape:connector-curvature="0"
       sodipodi:nodetypes="ccsssssssssscsssscc" />
    <path
       style="opacity:1;fill:#00ffff;fill-opacity:1;stroke:#000000;stroke-width:0.33734095;stroke-linejoin:round;stroke-miterlimit:4;stroke-dasharray:none;stroke-opacity:1"
       d="m 227.48856,-18.487197 3.70017,0.95825 c 0.0504,-0.20768 2.48815,-3.89065 1.83972,-3.49812 -8.8e-4,5e-4 0.10067,-0.0378 0.0666,0.12241 -0.0973,0.45865 0.18,1.77519 0.10056,3.7534 -0.003,0.0704 0.13956,0.0243 0.21033,0.0366 1.38279,0.24018 2.99325,0.51839 3.50282,0.64269 0.47611,0.11616 0.13924,0.14645 0.12579,0.19058 -0.0112,0.0372 -0.17744,0.0313 -0.22526,0.0492 -0.60388,0.22569 -2.56305,0.82024 -3.19718,1.09624 -0.099,0.043 -0.22349,0.0273 -0.2241,0.0742 -0.0194,1.48924 0.36038,3.82686 0.45629,3.98712 0.34132,0.57046 -2.15125,-3.15264 -2.20357,-3.05395 4.70858,6.1781697 0.0392,-0.0145 0,0 l -3.55391,1.31321 c -0.0393,0.0145 -0.0794,-0.0571 -0.0552,-0.0912 l 1.94057,-2.754 c 0.0242,-0.0341 -2.48351,-2.82652 -2.48351,-2.82652 z"
       id="rect909-8-61"
       inkscape:connector-curvature="0"
       sodipodi:nodetypes="ccsssssssssscsssscc" />
    <path
       style="opacity:1;fill:#00ffff;fill-opacity:1;stroke:#000000;stroke-width:0.33734095;stroke-linejoin:round;stroke-miterlimit:4;stroke-dasharray:none;stroke-opacity:1"
       d="m 236.5089,-16.482676 3.70017,0.95825 c 0.0504,-0.20768 2.48815,-3.89065 1.83972,-3.49812 -8.7e-4,5e-4 0.10067,-0.0378 0.0666,0.12241 -0.0973,0.45865 0.18,1.77519 0.10056,3.7534 -0.003,0.0704 0.13956,0.0243 0.21033,0.0366 1.38279,0.24018 2.99325,0.51839 3.50282,0.64269 0.47611,0.11616 0.13924,0.14645 0.12579,0.19058 -0.0112,0.0372 -0.17744,0.0313 -0.22526,0.0492 -0.60388,0.22569 -2.56305,0.82024 -3.19718,1.09624 -0.099,0.043 -0.22349,0.0273 -0.2241,0.0742 -0.0194,1.48924 0.36038,3.8268603 0.45629,3.9871203 0.34132,0.57046 -2.15125,-3.1526403 -2.20357,-3.0539503 4.70858,6.1781703 0.0392,-0.0145 0,0 l -3.55391,1.31321 c -0.0393,0.0145 -0.0794,-0.0571 -0.0552,-0.0912 l 1.94057,-2.754 c 0.0242,-0.0341 -2.48351,-2.82652 -2.48351,-2.82652 z"
       id="rect909-8-1"
       inkscape:connector-curvature="0"
       sodipodi:nodetypes="ccsssssssssscsssscc" />
    <path
       style="opacity:1;fill:#00ffff;fill-opacity:1;stroke:#000000;stroke-width:0.33734095;stroke-linejoin:round;stroke-miterlimit:4;stroke-dasharray:none;stroke-opacity:1"
       d="m 176.77122,0.63793894 3.05036,2.30322676 c 0.12608,-0.1725321 3.7893,-2.63992626 3.03994,-2.52589498 -0.001,1.2731e-4 0.10747,0.003671 0.0146,0.13859209 -0.26569,0.38631104 -0.51412,1.70861899 -1.34567,3.50532359 -0.0293,0.064014 0.11959,0.075933 0.18024,0.1144163 1.18515,0.75182 2.566,1.6260176 2.98902,1.9361277 0.39523,0.2897685 0.0725,0.1886319 0.0431,0.2242387 -0.0245,0.030155 -0.17589,-0.039095 -0.22692,-0.040894 -0.64426,-0.022988 -2.6817,-0.2247245 -3.37318,-0.2128376 -0.10792,0.00177 -0.2169,-0.06045 -0.23543,-0.01736 -0.5887,1.3680823 -1.13387,3.6727488 -1.10668,3.8575361 0.0966,0.6577154 -0.77868,-3.736401 -0.86483,-3.6652995 1.98115,7.5110379 0.0418,0.00164 0,0 l -3.78584,-0.1491628 c -0.0418,-0.00168 -0.0514,-0.083149 -0.016,-0.1053664 l 2.8479,-1.7999457 c 0.0355,-0.022215 -1.21055,-3.56252692 -1.21055,-3.56252692 z"
       id="rect909-8-59"
       inkscape:connector-curvature="0"
       sodipodi:nodetypes="ccsssssssssscsssscc" />
    <path
       style="opacity:1;fill:#00ffff;fill-opacity:1;stroke:#000000;stroke-width:0.33734095;stroke-linejoin:round;stroke-miterlimit:4;stroke-dasharray:none;stroke-opacity:1"
       d="m 213.5667,12.468465 3.79571,0.449529 c 0.0219,-0.212585 1.93966,-4.1911515 1.35021,-3.7146106 -8e-4,6.143e-4 0.0947,-0.051055 0.0825,0.1122907 -0.0344,0.4675917 0.4182,1.7345929 0.60677,3.7053959 0.006,0.07016 0.14156,0.0052 0.21334,0.0078 1.40256,0.05115 3.03585,0.109215 3.55754,0.163527 0.48744,0.05076 0.15775,0.126294 0.15039,0.171836 -0.006,0.03837 -0.17158,0.05499 -0.21655,0.07919 -0.56785,0.305212 -2.42873,1.159017 -3.01975,1.518163 -0.0923,0.05598 -0.21775,0.05725 -0.21202,0.103794 0.18196,1.478207 0.87413,3.743077 0.99081,3.888909 0.41526,0.519114 -2.55748,-2.833074 -2.59599,-2.728219 5.50014,5.485336 0.0369,-0.01966 0,0 l -3.34389,1.781341 c -0.037,0.01967 -0.0864,-0.04585 -0.067,-0.08291 l 1.55068,-2.99094 c 0.0194,-0.03706 -2.84264,-2.465052 -2.84264,-2.465052 z"
       id="rect909-8-84"
       inkscape:connector-curvature="0"
       sodipodi:nodetypes="ccsssssssssscsssscc" />
    <path
       style="opacity:1;fill:#00ffff;fill-opacity:1;stroke:#000000;stroke-width:0.33734095;stroke-linejoin:round;stroke-miterlimit:4;stroke-dasharray:none;stroke-opacity:1"
       d="m 184.26164,6.2050144 3.70017,0.95825 c 0.0504,-0.20768 2.48815,-3.89065 1.83972,-3.49812 -8.8e-4,5e-4 0.10067,-0.0378 0.0666,0.12241 -0.0973,0.45865 0.18,1.77519 0.10056,3.7534 -0.003,0.0704 0.13956,0.0243 0.21033,0.0366 1.38279,0.24018 2.99325,0.51839 3.50282,0.64269 0.47611,0.11616 0.13924,0.14645 0.12579,0.19058 -0.0112,0.0372 -0.17744,0.0313 -0.22526,0.0492 -0.60388,0.22569 -2.56305,0.82024 -3.19718,1.09624 -0.099,0.043 -0.22349,0.0273 -0.2241,0.0742 -0.0194,1.4892396 0.36038,3.8268606 0.45629,3.9871206 0.34132,0.57046 -2.15125,-3.152641 -2.20357,-3.053951 4.70858,6.178171 0.0392,-0.0145 0,0 l -3.55391,1.31321 c -0.0393,0.0145 -0.0794,-0.0571 -0.0552,-0.0912 l 1.94057,-2.7539996 c 0.0242,-0.0341 -2.48351,-2.82652 -2.48351,-2.82652 z"
       id="rect909-8-81"
       inkscape:connector-curvature="0"
       sodipodi:nodetypes="ccsssssssssscsssscc" />
    <path
       style="opacity:1;fill:#00ffff;fill-opacity:1;stroke:#000000;stroke-width:0.33734095;stroke-linejoin:round;stroke-miterlimit:4;stroke-dasharray:none;stroke-opacity:1"
       d="m 193.83332,8.1810445 3.70017,0.95825 c 0.0504,-0.20768 2.48815,-3.89065 1.83972,-3.49812 -8.8e-4,5e-4 0.10067,-0.0378 0.0666,0.12241 -0.0973,0.45865 0.18,1.77519 0.10056,3.7534 -0.003,0.0704 0.13956,0.0243 0.21033,0.0366 1.38279,0.24018 2.99325,0.5183895 3.50282,0.6426895 0.47611,0.11616 0.13924,0.14645 0.12579,0.19058 -0.0112,0.0372 -0.17744,0.0313 -0.22526,0.0492 -0.60388,0.22569 -2.56305,0.82024 -3.19718,1.09624 -0.099,0.043 -0.22349,0.0273 -0.2241,0.0742 -0.0194,1.48924 0.36038,3.82686 0.45629,3.98712 0.34132,0.57046 -2.15125,-3.15264 -2.20357,-3.05395 4.70858,6.17817 0.0392,-0.0145 0,0 l -3.55391,1.31321 c -0.0393,0.0145 -0.0794,-0.0571 -0.0552,-0.0912 l 1.94057,-2.754 c 0.0242,-0.0341 -2.48351,-2.8265195 -2.48351,-2.8265195 z"
       id="rect909-8-03"
       inkscape:connector-curvature="0"
       sodipodi:nodetypes="ccsssssssssscsssscc" />
    <path
       style="opacity:1;fill:#00ffff;fill-opacity:1;stroke:#000000;stroke-width:0.33734095;stroke-linejoin:round;stroke-miterlimit:4;stroke-dasharray:none;stroke-opacity:1"
       d="m 203.60232,10.354408 3.70017,0.95825 c 0.0504,-0.20768 2.48816,-3.8906504 1.83973,-3.4981204 -8.8e-4,5e-4 0.10067,-0.0378 0.0666,0.12241 -0.0973,0.45865 0.18,1.77519 0.10056,3.7534004 -0.003,0.0704 0.13956,0.0243 0.21033,0.0366 1.38279,0.24018 2.99325,0.51839 3.50282,0.642689 0.47611,0.11616 0.13924,0.14645 0.12579,0.19058 -0.0112,0.0372 -0.17744,0.0313 -0.22526,0.0492 -0.60388,0.22569 -2.56305,0.82024 -3.19718,1.09624 -0.099,0.043 -0.22349,0.0273 -0.2241,0.0742 -0.0194,1.48924 0.36038,3.82686 0.45629,3.98712 0.34132,0.57046 -2.15125,-3.15264 -2.20357,-3.05395 4.70858,6.17817 0.0392,-0.0145 0,0 l -3.55391,1.31321 c -0.0393,0.0145 -0.0794,-0.0571 -0.0552,-0.0912 l 1.94057,-2.754 c 0.0242,-0.0341 -2.48351,-2.826519 -2.48351,-2.826519 z"
       id="rect909-8-04"
       inkscape:connector-curvature="0"
       sodipodi:nodetypes="ccsssssssssscsssscc" />
    <path
       style="opacity:1;fill:#00ffff;fill-opacity:1;stroke:#000000;stroke-width:0.33734095;stroke-linejoin:round;stroke-miterlimit:4;stroke-dasharray:none;stroke-opacity:1"
       d="m 223.4127,13.25106 3.70017,0.95825 c 0.0504,-0.20768 2.48815,-3.890651 1.83972,-3.498121 -8.8e-4,5e-4 0.10067,-0.0378 0.0666,0.12241 -0.0973,0.45865 0.18,1.77519 0.10056,3.753401 -0.003,0.0704 0.13956,0.0243 0.21033,0.0366 1.38279,0.24018 2.99325,0.51839 3.50282,0.64269 0.47611,0.11616 0.13924,0.14645 0.12579,0.19058 -0.0112,0.0372 -0.17744,0.0313 -0.22526,0.0492 -0.60388,0.22569 -2.56305,0.82024 -3.19718,1.09624 -0.099,0.043 -0.22349,0.0273 -0.2241,0.0742 -0.0194,1.48924 0.36038,3.82686 0.45629,3.98712 0.34132,0.57046 -2.15125,-3.15264 -2.20357,-3.05395 4.70858,6.17817 0.0392,-0.0145 0,0 l -3.55391,1.31321 c -0.0393,0.0145 -0.0794,-0.0571 -0.0552,-0.0912 l 1.94057,-2.754 c 0.0242,-0.0341 -2.48351,-2.82652 -2.48351,-2.82652 z"
       id="rect909-8-63"
       inkscape:connector-curvature="0"
       sodipodi:nodetypes="ccsssssssssscsssscc" />
    <path
       style="opacity:1;fill:#00ffff;fill-opacity:1;stroke:#000000;stroke-width:0.33734095;stroke-linejoin:round;stroke-miterlimit:4;stroke-dasharray:none;stroke-opacity:1"
       d="m 232.76713,15.255581 3.70017,0.95825 c 0.0504,-0.20768 2.48815,-3.89065 1.83972,-3.49812 -8.7e-4,5e-4 0.10067,-0.0378 0.0666,0.12241 -0.0973,0.45865 0.18,1.77519 0.10056,3.7534 -0.003,0.0704 0.13956,0.0243 0.21033,0.0366 1.38279,0.24018 2.99325,0.51839 3.50282,0.64269 0.47611,0.11616 0.13924,0.14645 0.12579,0.19058 -0.0112,0.0372 -0.17744,0.0313 -0.22526,0.0492 -0.60388,0.22569 -2.56305,0.82024 -3.19718,1.09624 -0.099,0.043 -0.22349,0.0273 -0.2241,0.0742 -0.0194,1.48924 0.36038,3.82686 0.45629,3.98712 0.34132,0.57046 -2.15125,-3.15264 -2.20357,-3.05395 4.70858,6.17817 0.0392,-0.0145 0,0 l -3.55391,1.31321 c -0.0393,0.0145 -0.0794,-0.0571 -0.0552,-0.0912 l 1.94057,-2.754 c 0.0242,-0.0341 -2.48351,-2.82652 -2.48351,-2.82652 z"
       id="rect909-8-17"
       inkscape:connector-curvature="0"
       sodipodi:nodetypes="ccsssssssssscsssscc" />
    <path
       style="opacity:1;fill:#00ffff;fill-opacity:1;stroke:#000000;stroke-width:0.33734095;stroke-linejoin:round;stroke-miterlimit:4;stroke-dasharray:none;stroke-opacity:1"
       d="m 168.81023,40.226403 3.07856,2.265396 c 0.12401,-0.174049 3.75642,-2.686505 3.00853,-2.563229 -0.001,1.37e-4 0.10751,0.0023 0.0163,0.138398 -0.26087,0.389584 -0.49299,1.714837 -1.3023,3.521668 -0.029,0.06424 0.12052,0.07445 0.18164,0.112184 1.19434,0.737129 2.58588,1.594216 3.01269,1.89908 0.39878,0.284865 0.0748,0.187723 0.0459,0.223688 -0.0242,0.03037 -0.17636,-0.03692 -0.22741,-0.03809 -0.6445,-0.01504 -2.68427,-0.191604 -3.37555,-0.171186 -0.10789,0.0031 -0.21762,-0.05776 -0.23563,-0.01445 -0.57176,1.375246 -1.08842,3.686472 -1.05897,3.870903 0.10473,0.656472 -0.82474,-3.726502 -0.91001,-3.654342 2.07371,7.486003 0.0418,0.0011 0,0 l -3.78739,-0.102417 c -0.0419,-0.0012 -0.0525,-0.08253 -0.0173,-0.105187 l 2.82546,-1.834963 c 0.0352,-0.02266 -1.25444,-3.547311 -1.25444,-3.547311 z"
       id="rect909-8-596"
       inkscape:connector-curvature="0"
       sodipodi:nodetypes="ccsssssssssscsssscc" />
    <path
       style="opacity:1;fill:#00ffff;fill-opacity:1;stroke:#000000;stroke-width:0.33734095;stroke-linejoin:round;stroke-miterlimit:4;stroke-dasharray:none;stroke-opacity:1"
       d="m 176.66345,45.724306 3.70017,0.95825 c 0.0504,-0.20768 2.48815,-3.89065 1.83972,-3.49812 -8.8e-4,5e-4 0.10067,-0.0378 0.0666,0.12241 -0.0973,0.45865 0.18,1.77519 0.10056,3.7534 -0.003,0.0704 0.13956,0.0243 0.21033,0.0366 1.38279,0.24018 2.99325,0.51839 3.50282,0.64269 0.47611,0.11616 0.13924,0.14645 0.12579,0.19058 -0.0112,0.0372 -0.17744,0.0313 -0.22526,0.0492 -0.60388,0.22569 -2.56305,0.82024 -3.19718,1.09624 -0.099,0.043 -0.22349,0.0273 -0.2241,0.0742 -0.0194,1.48924 0.36038,3.82686 0.45629,3.98712 0.34132,0.57046 -2.15125,-3.15264 -2.20357,-3.05395 4.70858,6.17817 0.0392,-0.0145 0,0 l -3.55391,1.31321 c -0.0393,0.0145 -0.0794,-0.0571 -0.0552,-0.0912 l 1.94057,-2.754 c 0.0242,-0.0341 -2.48351,-2.82652 -2.48351,-2.82652 z"
       id="rect909-8-2"
       inkscape:connector-curvature="0"
       sodipodi:nodetypes="ccsssssssssscsssscc" />
    <path
       style="opacity:1;fill:#00ffff;fill-opacity:1;stroke:#000000;stroke-width:0.33734095;stroke-linejoin:round;stroke-miterlimit:4;stroke-dasharray:none;stroke-opacity:1"
       d="m 148.17632,79.400267 3.70017,0.95825 c 0.0504,-0.20768 2.48815,-3.89065 1.83972,-3.49812 -8.7e-4,5e-4 0.10067,-0.0378 0.0666,0.12241 -0.0973,0.45865 0.18,1.77519 0.10056,3.7534 -0.003,0.0704 0.13956,0.0243 0.21033,0.0366 1.38279,0.24018 2.99325,0.51839 3.50282,0.64269 0.47611,0.11616 0.13924,0.14645 0.12579,0.19058 -0.0112,0.0372 -0.17744,0.0313 -0.22526,0.0492 -0.60388,0.22569 -2.56305,0.82024 -3.19718,1.09624 -0.099,0.043 -0.22349,0.0273 -0.2241,0.0742 -0.0194,1.48924 0.36038,3.82686 0.45629,3.98712 0.34132,0.57046 -2.15125,-3.15264 -2.20357,-3.05395 4.70858,6.17817 0.0392,-0.0145 0,0 l -3.55391,1.31321 c -0.0393,0.0145 -0.0794,-0.0571 -0.0552,-0.0912 l 1.94057,-2.754 c 0.0242,-0.0341 -2.48351,-2.82652 -2.48351,-2.82652 z"
       id="rect909-8-178"
       inkscape:connector-curvature="0"
       sodipodi:nodetypes="ccsssssssssscsssscc" />
    <path
       style="opacity:1;fill:#00ffff;fill-opacity:1;stroke:#000000;stroke-width:0.33734095;stroke-linejoin:round;stroke-miterlimit:4;stroke-dasharray:none;stroke-opacity:1"
       d="m 158.19049,81.712162 3.32864,1.878742 c 0.10218,-0.187699 3.4061,-3.11874 2.67846,-2.90642 -9.7e-4,2.59e-4 0.10701,-0.0106 0.0328,0.135431 -0.21212,0.418128 -0.28319,1.761677 -0.86934,3.65272 -0.021,0.06725 0.12859,0.05942 0.19381,0.08953 1.27431,0.588154 2.75882,1.271681 3.2192,1.523005 0.43014,0.234843 0.0968,0.177366 0.0725,0.216545 -0.0204,0.03306 -0.17951,-0.01545 -0.23033,-0.01046 -0.64163,0.06258 -2.68783,0.132585 -3.37165,0.235987 -0.10673,0.01606 -0.22298,-0.03117 -0.23565,0.01399 -0.40223,1.434024 -0.6372,3.790608 -0.58579,3.97016 0.18291,0.639114 -1.26689,-3.600279 -1.34286,-3.518389 2.95889,7.182301 0.0416,-0.0039 0,0 l -3.77222,0.353781 c -0.0417,0.0039 -0.062,-0.07562 -0.0299,-0.102339 l 2.58429,-2.161424 c 0.0322,-0.02672 -1.67192,-3.370715 -1.67192,-3.370715 z"
       id="rect909-8-57"
       inkscape:connector-curvature="0"
       sodipodi:nodetypes="ccsssssssssscsssscc" />
    <path
       style="opacity:1;fill:#00ffff;fill-opacity:1;stroke:#000000;stroke-width:0.33734095;stroke-linejoin:round;stroke-miterlimit:4;stroke-dasharray:none;stroke-opacity:1"
       d="m 166.88518,86.482909 3.70017,0.95825 c 0.0504,-0.20768 2.48815,-3.89065 1.83972,-3.49812 -8.7e-4,5e-4 0.10067,-0.0378 0.0666,0.12241 -0.0973,0.45865 0.18,1.77519 0.10056,3.7534 -0.003,0.0704 0.13956,0.0243 0.21033,0.0366 1.38279,0.24018 2.99325,0.51839 3.50282,0.64269 0.47611,0.11616 0.13924,0.14645 0.12579,0.19058 -0.0112,0.0372 -0.17744,0.0313 -0.22526,0.0492 -0.60388,0.22569 -2.56305,0.82024 -3.19718,1.09624 -0.099,0.043 -0.22349,0.0273 -0.2241,0.0742 -0.0194,1.48924 0.36038,3.82686 0.45629,3.98712 0.34132,0.57046 -2.15125,-3.15264 -2.20357,-3.05395 4.70858,6.17817 0.0392,-0.0145 0,0 l -3.55391,1.31321 c -0.0393,0.0145 -0.0794,-0.0571 -0.0552,-0.0912 l 1.94057,-2.754 c 0.0242,-0.0341 -2.48351,-2.82652 -2.48351,-2.82652 z"
       id="rect909-8-4"
       inkscape:connector-curvature="0"
       sodipodi:nodetypes="ccsssssssssscsssscc" />
    <path
       style="opacity:1;fill:#00ffff;fill-opacity:1;stroke:#000000;stroke-width:0.33734095;stroke-linejoin:round;stroke-miterlimit:4;stroke-dasharray:none;stroke-opacity:1"
       d="m 234.20608,59.276771 3.70017,0.95825 c 0.0504,-0.20768 2.48815,-3.89065 1.83972,-3.49812 -8.8e-4,5e-4 0.10067,-0.0378 0.0666,0.12241 -0.0973,0.45865 0.18,1.77519 0.10056,3.7534 -0.003,0.0704 0.13956,0.0243 0.21033,0.0366 1.38279,0.24018 2.99325,0.51839 3.50282,0.64269 0.47611,0.11616 0.13924,0.14645 0.12579,0.19058 -0.0112,0.0372 -0.17744,0.0313 -0.22526,0.0492 -0.60388,0.22569 -2.56305,0.82024 -3.19718,1.09624 -0.099,0.043 -0.22349,0.0273 -0.2241,0.0742 -0.0194,1.48924 0.36038,3.82686 0.45629,3.98712 0.34132,0.57046 -2.15125,-3.15264 -2.20357,-3.05395 4.70858,6.17817 0.0392,-0.0145 0,0 l -3.55391,1.31321 c -0.0393,0.0145 -0.0794,-0.0571 -0.0552,-0.0912 l 1.94057,-2.754 c 0.0242,-0.0341 -2.48351,-2.82652 -2.48351,-2.82652 z"
       id="rect909-8-18"
       inkscape:connector-curvature="0"
       sodipodi:nodetypes="ccsssssssssscsssscc" />
    <path
       style="opacity:1;fill:#00ffff;fill-opacity:1;stroke:#000000;stroke-width:0.33734095;stroke-linejoin:round;stroke-miterlimit:4;stroke-dasharray:none;stroke-opacity:1"
       d="m 186.27564,47.813267 3.56028,1.39066 c 0.0747,-0.20023 2.93235,-3.567822 2.24192,-3.255031 -9.4e-4,3.92e-4 0.10444,-0.02558 0.0516,0.12945 -0.15105,0.443859 -0.032,1.784006 -0.34566,3.738803 -0.0113,0.06955 0.13569,0.04069 0.2045,0.06131 1.34451,0.402609 2.91056,0.870003 3.40178,1.053906 0.45896,0.17185 0.12087,0.161942 0.10228,0.204163 -0.0155,0.03561 -0.1799,0.01002 -0.22951,0.02212 -0.6264,0.152418 -2.64229,0.510226 -3.30469,0.709008 -0.10341,0.03095 -0.22515,5.81e-4 -0.23133,0.04708 -0.19602,1.47641 -0.0964,3.842582 -0.0202,4.013093 0.27119,0.60694 -1.76185,-3.385692 -1.82551,-3.293909 3.94199,6.693371 0.0406,-0.0097 0,0 l -3.68466,0.882103 c -0.0407,0.0097 -0.0721,-0.06612 -0.044,-0.09711 l 2.25374,-2.504201 c 0.0281,-0.03099 -2.13047,-3.101314 -2.13047,-3.101314 z"
       id="rect909-8-597"
       inkscape:connector-curvature="0"
       sodipodi:nodetypes="ccsssssssssscsssscc" />
    <path
       style="opacity:1;fill:#00ffff;fill-opacity:1;stroke:#000000;stroke-width:0.33734095;stroke-linejoin:round;stroke-miterlimit:4;stroke-dasharray:none;stroke-opacity:1"
       d="m 195.30143,51.196616 3.70017,0.95825 c 0.0504,-0.20768 2.48815,-3.89065 1.83972,-3.49812 -8.7e-4,5e-4 0.10067,-0.0378 0.0666,0.12241 -0.0973,0.45865 0.18,1.77519 0.10056,3.7534 -0.003,0.0704 0.13956,0.0243 0.21033,0.0366 1.38279,0.24018 2.99325,0.51839 3.50282,0.64269 0.47611,0.11616 0.13924,0.14645 0.12579,0.19058 -0.0112,0.0372 -0.17744,0.0313 -0.22526,0.0492 -0.60388,0.22569 -2.56305,0.82024 -3.19718,1.09624 -0.099,0.043 -0.22349,0.0273 -0.2241,0.0742 -0.0194,1.48924 0.36038,3.82686 0.45629,3.98712 0.34132,0.57046 -2.15125,-3.15264 -2.20357,-3.05395 4.70858,6.17817 0.0392,-0.0145 0,0 l -3.55391,1.31321 c -0.0393,0.0145 -0.0794,-0.0571 -0.0552,-0.0912 l 1.94057,-2.754 c 0.0242,-0.0341 -2.48351,-2.82652 -2.48351,-2.82652 z"
       id="rect909-8-53"
       inkscape:connector-curvature="0"
       sodipodi:nodetypes="ccsssssssssscsssscc" />
    <path
       style="opacity:1;fill:#00ffff;fill-opacity:1;stroke:#000000;stroke-width:0.33734095;stroke-linejoin:round;stroke-miterlimit:4;stroke-dasharray:none;stroke-opacity:1"
       d="m 205.19596,53.242822 3.70017,0.95825 c 0.0504,-0.20768 2.48815,-3.89065 1.83972,-3.49812 -8.7e-4,5e-4 0.10067,-0.0378 0.0666,0.12241 -0.0973,0.45865 0.18,1.77519 0.10056,3.7534 -0.003,0.0704 0.13956,0.0243 0.21033,0.0366 1.38279,0.24018 2.99325,0.51839 3.50282,0.64269 0.47611,0.11616 0.13924,0.14645 0.12579,0.19058 -0.0112,0.0372 -0.17744,0.0313 -0.22526,0.0492 -0.60388,0.22569 -2.56305,0.82024 -3.19718,1.09624 -0.099,0.043 -0.22349,0.0273 -0.2241,0.0742 -0.0194,1.48924 0.36038,3.82686 0.45629,3.98712 0.34132,0.57046 -2.15125,-3.15264 -2.20357,-3.05395 4.70858,6.17817 0.0392,-0.0145 0,0 l -3.55391,1.31321 c -0.0393,0.0145 -0.0794,-0.0571 -0.0552,-0.0912 l 1.94057,-2.754 c 0.0242,-0.0341 -2.48351,-2.82652 -2.48351,-2.82652 z"
       id="rect909-8-88"
       inkscape:connector-curvature="0"
       sodipodi:nodetypes="ccsssssssssscsssscc" />
    <path
       style="opacity:1;fill:#00ffff;fill-opacity:1;stroke:#000000;stroke-width:0.33734095;stroke-linejoin:round;stroke-miterlimit:4;stroke-dasharray:none;stroke-opacity:1"
       d="m 214.67593,55.44698 3.70017,0.95825 c 0.0504,-0.20768 2.48815,-3.89065 1.83972,-3.49812 -8.8e-4,5e-4 0.10067,-0.0378 0.0666,0.12241 -0.0973,0.45865 0.18,1.77519 0.10056,3.7534 -0.003,0.0704 0.13956,0.0243 0.21033,0.0366 1.38279,0.24018 2.99325,0.51839 3.50282,0.64269 0.47611,0.11616 0.13924,0.14645 0.12579,0.19058 -0.0112,0.0372 -0.17744,0.0313 -0.22526,0.0492 -0.60388,0.22569 -2.56305,0.82024 -3.19718,1.09624 -0.099,0.043 -0.22349,0.0273 -0.2241,0.0742 -0.0194,1.48924 0.36038,3.82686 0.45629,3.98712 0.34132,0.57046 -2.15125,-3.15264 -2.20357,-3.05395 4.70858,6.17817 0.0392,-0.0145 0,0 l -3.55391,1.31321 c -0.0393,0.0145 -0.0794,-0.0571 -0.0552,-0.0912 l 1.94057,-2.754 c 0.0242,-0.0341 -2.48351,-2.82652 -2.48351,-2.82652 z"
       id="rect909-8-31"
       inkscape:connector-curvature="0"
       sodipodi:nodetypes="ccsssssssssscsssscc" />
    <path
       style="opacity:1;fill:#00ffff;fill-opacity:1;stroke:#000000;stroke-width:0.33734095;stroke-linejoin:round;stroke-miterlimit:4;stroke-dasharray:none;stroke-opacity:1"
       d="m 224.45096,57.579366 3.73353,0.818694 c 0.0426,-0.209425 2.34037,-3.981298 1.70713,-3.564706 -8.5e-4,5.32e-4 0.0992,-0.04155 0.0712,0.119824 -0.08,0.461978 0.2465,1.767183 0.24137,3.74698 -3.6e-4,0.07046 0.14037,0.01904 0.21155,0.02868 1.39083,0.18811 3.0106,0.405678 3.52447,0.510764 0.48014,0.09821 0.14464,0.141121 0.13286,0.185724 -0.01,0.03759 -0.17614,0.03794 -0.22326,0.05762 -0.59498,0.248197 -2.53045,0.915863 -3.15378,1.21547 -0.0973,0.04668 -0.2223,0.03567 -0.22115,0.08256 0.0365,1.488918 0.50376,3.810637 0.60562,3.967184 0.36249,0.557247 -2.26807,-3.069674 -2.31665,-2.96909 4.93715,5.997087 0.0386,-0.01596 0,0 l -3.50211,1.445676 c -0.0387,0.01596 -0.0815,-0.05408 -0.0586,-0.08906 l 1.83584,-2.824896 c 0.0229,-0.03498 -2.58785,-2.731314 -2.58785,-2.731314 z"
       id="rect909-8-89"
       inkscape:connector-curvature="0"
       sodipodi:nodetypes="ccsssssssssscsssscc" />
    <path
       style="opacity:1;fill:#00ffff;fill-opacity:1;stroke:#000000;stroke-width:0.33734095;stroke-linejoin:round;stroke-miterlimit:4;stroke-dasharray:none;stroke-opacity:1"
       d="m 243.89718,61.394244 3.77303,0.611333 c 0.0309,-0.211457 2.117,-4.104429 1.50773,-3.653514 -8.3e-4,5.79e-4 0.0967,-0.04696 0.0777,0.115713 -0.0544,0.465692 0.34369,1.75088 0.44786,3.727942 0.004,0.07038 0.14121,0.01127 0.21281,0.01696 1.3991,0.11104 3.02841,0.238855 3.5473,0.315412 0.48483,0.07155 0.15221,0.132921 0.14291,0.178107 -0.008,0.03808 -0.17378,0.0476 -0.21974,0.06986 -0.58037,0.280665 -2.47603,1.054163 -3.08187,1.387724 -0.0946,0.05199 -0.22,0.04789 -0.21626,0.09464 0.11865,1.484632 0.71336,3.777015 0.82371,3.9277 0.3927,0.536386 -2.43407,-2.939782 -2.47702,-2.836669 5.26069,5.71538 0.0377,-0.01807 0,0 l -3.41697,1.636809 c -0.0378,0.01808 -0.0844,-0.0495 -0.0634,-0.08569 l 1.67708,-2.921937 c 0.0209,-0.0362 -2.73468,-2.584283 -2.73468,-2.584283 z"
       id="rect909-8-64"
       inkscape:connector-curvature="0"
       sodipodi:nodetypes="ccsssssssssscsssscc" />
    <path
       style="opacity:1;fill:#00ffff;fill-opacity:1;stroke:#000000;stroke-width:0.33734095;stroke-linejoin:round;stroke-miterlimit:4;stroke-dasharray:none;stroke-opacity:1"
       d="m 176.64053,88.754701 3.70017,0.95825 c 0.0504,-0.20768 2.48815,-3.89065 1.83972,-3.49812 -8.8e-4,5e-4 0.10067,-0.0378 0.0666,0.12241 -0.0973,0.45865 0.18,1.77519 0.10056,3.7534 -0.003,0.0704 0.13956,0.0243 0.21033,0.0366 1.38279,0.24018 2.99325,0.51839 3.50282,0.64269 0.47611,0.11616 0.13924,0.14645 0.12579,0.19058 -0.0112,0.0372 -0.17744,0.0313 -0.22526,0.0492 -0.60388,0.22569 -2.56305,0.82024 -3.19718,1.09624 -0.099,0.043 -0.22349,0.0273 -0.2241,0.0742 -0.0194,1.48924 0.36038,3.82686 0.45629,3.98712 0.34132,0.57046 -2.15125,-3.15264 -2.20357,-3.05395 4.70858,6.178165 0.0392,-0.0145 0,0 l -3.55391,1.31321 c -0.0393,0.0145 -0.0794,-0.0571 -0.0552,-0.0912 l 1.94057,-2.754 c 0.0242,-0.0341 -2.48351,-2.82652 -2.48351,-2.82652 z"
       id="rect909-8-33"
       inkscape:connector-curvature="0"
       sodipodi:nodetypes="ccsssssssssscsssscc" />
    <path
       style="opacity:1;fill:#00ffff;fill-opacity:1;stroke:#000000;stroke-width:0.33734095;stroke-linejoin:round;stroke-miterlimit:4;stroke-dasharray:none;stroke-opacity:1"
       d="m 186.5295,90.892857 3.70017,0.95825 c 0.0504,-0.20768 2.48815,-3.89065 1.83972,-3.49812 -8.7e-4,5e-4 0.10067,-0.0378 0.0666,0.12241 -0.0973,0.45865 0.18,1.77519 0.10056,3.7534 -0.003,0.0704 0.13956,0.0243 0.21033,0.0366 1.38279,0.24018 2.99325,0.51839 3.50282,0.64269 0.47611,0.11616 0.13924,0.14645 0.12579,0.19058 -0.0112,0.0372 -0.17744,0.0313 -0.22526,0.0492 -0.60388,0.22569 -2.56305,0.82024 -3.19718,1.09624 -0.099,0.043 -0.22349,0.0273 -0.2241,0.0742 -0.0194,1.48924 0.36038,3.82686 0.45629,3.98712 0.34132,0.570456 -2.15125,-3.15264 -2.20357,-3.05395 4.70858,6.178163 0.0392,-0.0145 0,0 l -3.55391,1.31321 c -0.0393,0.0145 -0.0794,-0.0571 -0.0552,-0.0912 l 1.94057,-2.754 c 0.0242,-0.0341 -2.48351,-2.82652 -2.48351,-2.82652 z"
       id="rect909-8-38"
       inkscape:connector-curvature="0"
       sodipodi:nodetypes="ccsssssssssscsssscc" />
    <path
       style="opacity:1;fill:#00ffff;fill-opacity:1;stroke:#000000;stroke-width:0.33734095;stroke-linejoin:round;stroke-miterlimit:4;stroke-dasharray:none;stroke-opacity:1"
       d="m 195.87467,93.010392 3.79317,0.470455 c 0.0231,-0.212461 1.96275,-4.18039 1.37069,-3.707107 -8e-4,6.08e-4 0.0949,-0.05053 0.0819,0.112742 -0.037,0.467394 0.40863,1.736873 0.58632,3.708686 0.006,0.0702 0.14154,0.006 0.2133,0.009 1.40226,0.05888 3.0352,0.125952 3.55658,0.18314 0.48715,0.05345 0.15705,0.127163 0.14944,0.172664 -0.006,0.03834 -0.17189,0.05404 -0.21698,0.07799 -0.56953,0.302075 -2.43508,1.145603 -3.02808,1.501485 -0.0926,0.05547 -0.21806,0.05604 -0.21259,0.102627 0.17384,1.479187 0.85347,3.74784 0.96935,3.89432 0.4124,0.521386 -2.54182,-2.84714 -2.5809,-2.742499 5.46981,5.515585 0.037,-0.01946 0,0 l -3.35367,1.762872 c -0.0371,0.01947 -0.0861,-0.04632 -0.0665,-0.08327 l 1.56715,-2.982342 c 0.0196,-0.03695 -2.829,-2.480688 -2.829,-2.480688 z"
       id="rect909-8-60"
       inkscape:connector-curvature="0"
       sodipodi:nodetypes="ccsssssssssscsssscc" />
    <path
       style="opacity:1;fill:#00ffff;fill-opacity:1;stroke:#000000;stroke-width:0.33734095;stroke-linejoin:round;stroke-miterlimit:4;stroke-dasharray:none;stroke-opacity:1"
       d="m 205.77916,93.860847 3.76937,0.63348 c 0.0322,-0.211271 2.14108,-4.091925 1.52916,-3.644596 -8.2e-4,5.73e-4 0.097,-0.0464 0.077,0.116167 -0.0571,0.465365 0.33339,1.752868 0.42595,3.730505 0.003,0.0704 0.14114,0.0121 0.21271,0.01821 1.39842,0.119256 3.02695,0.256637 3.54539,0.33624 0.48439,0.0744 0.15142,0.133812 0.14185,0.178943 -0.008,0.03803 -0.17405,0.04658 -0.22014,0.06857 -0.58201,0.277252 -2.48218,1.039603 -3.08996,1.369601 -0.0949,0.05143 -0.22028,0.04659 -0.21682,0.09337 0.10993,1.485304 0.69117,3.781143 0.80063,3.932473 0.38954,0.53869 -2.41676,-2.954029 -2.46032,-2.85117 5.22704,5.74618 0.0378,-0.01785 0,0 l -3.42652,1.616714 c -0.0379,0.01786 -0.0841,-0.04999 -0.0629,-0.08606 l 1.69422,-2.912038 c 0.0212,-0.03607 -2.71947,-2.600296 -2.71947,-2.600296 z"
       id="rect909-8-48"
       inkscape:connector-curvature="0"
       sodipodi:nodetypes="ccsssssssssscsssscc" />
    <path
       style="opacity:1;fill:#00ffff;fill-opacity:1;stroke:#000000;stroke-width:0.33734095;stroke-linejoin:round;stroke-miterlimit:4;stroke-dasharray:none;stroke-opacity:1"
       d="m 215.3946,94.968717 3.70017,0.95825 c 0.0504,-0.20768 2.48815,-3.89065 1.83972,-3.49812 -8.7e-4,5e-4 0.10067,-0.0378 0.0666,0.12241 -0.0973,0.45865 0.18,1.77519 0.10056,3.7534 -0.003,0.0704 0.13956,0.0243 0.21033,0.0366 1.38279,0.24018 2.99325,0.51839 3.50282,0.64269 0.47611,0.11616 0.13924,0.14645 0.12579,0.19058 -0.0112,0.0372 -0.17744,0.0313 -0.22526,0.0492 -0.60388,0.22569 -2.56305,0.82024 -3.19718,1.09624 -0.099,0.043 -0.22349,0.0273 -0.2241,0.0742 -0.0194,1.48924 0.36038,3.826863 0.45629,3.987123 0.34132,0.57046 -2.15125,-3.152643 -2.20357,-3.053953 4.70858,6.178173 0.0392,-0.0145 0,0 l -3.55391,1.313213 c -0.0393,0.0145 -0.0794,-0.0571 -0.0552,-0.0912 l 1.94057,-2.754003 c 0.0242,-0.0341 -2.48351,-2.82652 -2.48351,-2.82652 z"
       id="rect909-8-889"
       inkscape:connector-curvature="0"
       sodipodi:nodetypes="ccsssssssssscsssscc" />
    <path
       style="opacity:1;fill:#00ffff;fill-opacity:1;stroke:#000000;stroke-width:0.33734095;stroke-linejoin:round;stroke-miterlimit:4;stroke-dasharray:none;stroke-opacity:1"
       d="m 225.28992,97.108355 3.80722,0.338495 c 0.0157,-0.213133 1.81645,-4.246006 1.24116,-3.752455 -7.7e-4,6.36e-4 0.0931,-0.0538 0.0858,0.109831 -0.0208,0.468397 0.46867,1.721641 0.71471,3.686098 0.009,0.06994 0.14165,0.0011 0.21348,0.0016 1.40346,0.01017 3.03774,0.02052 3.56079,0.05957 0.48872,0.03651 0.16138,0.121634 0.15534,0.167372 -0.005,0.03853 -0.1699,0.05997 -0.21414,0.08547 -0.55869,0.321663 -2.39384,1.229443 -2.97412,1.605704 -0.0906,0.0587 -0.21599,0.0636 -0.2089,0.10995 0.22508,1.47226 0.98305,3.71594 1.10395,3.85831 0.43024,0.50676 -2.63912,-2.75718 -2.67455,-2.65124 5.65798,5.32237 0.0363,-0.0207 0,0 l -3.29045,1.87822 c -0.0364,0.0207 -0.0877,-0.0433 -0.0694,-0.0809 l 1.46268,-3.03494 c 0.0183,-0.0376 -2.91341,-2.380994 -2.91341,-2.380994 z"
       id="rect909-8-7"
       inkscape:connector-curvature="0"
       sodipodi:nodetypes="ccsssssssssscsssscc" />
    <path
       style="opacity:1;fill:#00ffff;fill-opacity:1;stroke:#000000;stroke-width:0.33734095;stroke-linejoin:round;stroke-miterlimit:4;stroke-dasharray:none;stroke-opacity:1"
       d="m 235.45958,97.678778 3.82206,0.0364 c -0.001,-0.213704 1.47503,-4.376338 0.94057,-3.838845 -7.2e-4,6.95e-4 0.0886,-0.06099 0.0942,0.102705 0.0163,0.468573 0.60334,1.679193 1.00393,3.618045 0.0141,0.06904 0.1413,-0.01012 0.21295,-0.01527 1.39986,-0.100835 3.02985,-0.219742 3.55435,-0.222168 0.49007,-0.0022 0.17048,0.108488 0.16809,0.15456 -0.002,0.0388 -0.16463,0.07322 -0.20672,0.102139 -0.53151,0.364832 -2.28913,1.414874 -2.83785,1.835834 -0.0857,0.0656 -0.21028,0.0805 -0.19955,0.12612 0.34079,1.449852 1.2738,3.626592 1.40557,3.758952 0.46897,0.47116 -2.84887,-2.53988 -2.87581,-2.43147 6.06111,4.85834 0.0345,-0.0235 0,0 l -3.13163,2.13252 c -0.0346,0.0236 -0.0908,-0.0362 -0.0756,-0.0752 l 1.21812,-3.141102 c 0.0153,-0.0389 -3.09254,-2.143169 -3.09254,-2.143169 z"
       id="rect909-8-76"
       inkscape:connector-curvature="0"
       sodipodi:nodetypes="ccsssssssssscsssscc" />
    <path
       style="opacity:1;fill:#00ffff;fill-opacity:1;stroke:#000000;stroke-width:0.33734095;stroke-linejoin:round;stroke-miterlimit:4;stroke-dasharray:none;stroke-opacity:1"
       d="m 245.72322,97.434967 3.80717,-0.339043 c -0.0222,-0.21255 1.03821,-4.500019 0.55911,-3.912648 -6.5e-4,7.63e-4 0.0822,-0.06939 0.10382,0.09296 0.0623,0.464705 0.76529,1.611842 1.35432,3.501994 0.0208,0.06732 0.13962,-0.02394 0.21041,-0.03611 1.3832,-0.237792 2.99364,-0.516162 3.51537,-0.570075 0.48748,-0.05035 0.18031,0.09123 0.18245,0.137315 0.002,0.0388 -0.15665,0.08903 -0.19569,0.121941 -0.49312,0.415256 -2.13915,1.632797 -2.64389,2.105596 -0.0788,0.0737 -0.20137,0.10072 -0.1862,0.1451 0.48149,1.409393 1.62372,3.484003 1.76785,3.602783 0.51296,0.42284 -3.08448,-2.24789 -3.10065,-2.13736 6.50883,4.23977 0.0321,-0.0268 0,0 l -2.90712,2.4297 c -0.0322,0.0268 -0.094,-0.0272 -0.0826,-0.0674 l 0.90384,-3.245523 c 0.0113,-0.0403 -3.28803,-1.829183 -3.28803,-1.829183 z"
       id="rect909-8-43"
       inkscape:connector-curvature="0"
       sodipodi:nodetypes="ccsssssssssscsssscc" />
    <path
       style="opacity:1;fill:#00ffff;fill-opacity:1;stroke:#000000;stroke-width:0.33734095;stroke-linejoin:round;stroke-miterlimit:4;stroke-dasharray:none;stroke-opacity:1"
       d="m 255.84701,96.028574 3.77303,0.611332 c 0.0309,-0.211457 2.117,-4.104429 1.50773,-3.653514 -8.2e-4,5.78e-4 0.0967,-0.04696 0.0777,0.115713 -0.0544,0.465692 0.34369,1.75088 0.44786,3.727942 0.004,0.07037 0.14121,0.01127 0.21281,0.01696 1.3991,0.11104 3.02841,0.238855 3.5473,0.315412 0.48483,0.07155 0.15221,0.13292 0.14291,0.178107 -0.008,0.03808 -0.17378,0.0476 -0.21974,0.06986 -0.58037,0.280665 -2.47603,1.054162 -3.08187,1.387724 -0.0946,0.05199 -0.22,0.04789 -0.21626,0.09464 0.11865,1.48463 0.71336,3.77701 0.82371,3.9277 0.3927,0.53638 -2.43407,-2.939789 -2.47702,-2.836669 5.26069,5.715379 0.0377,-0.0181 0,0 l -3.41697,1.636809 c -0.0378,0.0181 -0.0843,-0.0495 -0.0634,-0.0857 l 1.67708,-2.921931 c 0.0209,-0.03619 -2.73468,-2.584283 -2.73468,-2.584283 z"
       id="rect909-8-030"
       inkscape:connector-curvature="0"
       sodipodi:nodetypes="ccsssssssssscsssscc" />
    <path
       style="opacity:1;fill:#00ffff;fill-opacity:1;stroke:#000000;stroke-width:0.33734095;stroke-linejoin:round;stroke-miterlimit:4;stroke-dasharray:none;stroke-opacity:1"
       d="m 129.96877,122.8267 3.30434,1.92115 c 0.10457,-0.18638 3.4457,-3.07493 2.71541,-2.87193 -9.8e-4,2.5e-4 0.10713,-0.009 0.0311,0.13584 -0.21746,0.41538 -0.3057,1.75791 -0.91599,3.6413 -0.0219,0.067 0.12783,0.0611 0.19265,0.092 1.26669,0.6044 2.74234,1.30686 3.19947,1.56405 0.4271,0.24032 0.0945,0.17859 0.0697,0.21745 -0.0208,0.0328 -0.1793,-0.0177 -0.23018,-0.0134 -0.64237,0.0544 -2.6893,0.0982 -3.37439,0.19286 -0.10693,0.0147 -0.22256,-0.034 -0.23581,0.011 -0.42053,1.42876 -0.68562,3.78215 -0.63651,3.96235 0.17473,0.6414 -1.22075,-3.61619 -1.29776,-3.53528 2.86681,7.21955 0.0417,-0.003 0,0 l -3.77643,0.30552 c -0.0418,0.003 -0.061,-0.0764 -0.0285,-0.10271 l 2.61172,-2.12821 c 0.0325,-0.0263 -1.62868,-3.39181 -1.62868,-3.39181 z"
       id="rect909-8-92"
       inkscape:connector-curvature="0"
       sodipodi:nodetypes="ccsssssssssscsssscc" />
    <path
       style="opacity:1;fill:#00ffff;fill-opacity:1;stroke:#000000;stroke-width:0.33734095;stroke-linejoin:round;stroke-miterlimit:4;stroke-dasharray:none;stroke-opacity:1"
       d="m 138.69103,127.38788 3.70017,0.95825 c 0.0504,-0.20768 2.48815,-3.89065 1.83972,-3.49812 -8.7e-4,5e-4 0.10067,-0.0378 0.0666,0.12241 -0.0973,0.45865 0.18,1.77519 0.10056,3.7534 -0.003,0.0704 0.13956,0.0243 0.21033,0.0366 1.38279,0.24018 2.99325,0.51839 3.50282,0.64269 0.47611,0.11616 0.13924,0.14645 0.12579,0.19058 -0.0112,0.0372 -0.17744,0.0313 -0.22526,0.0492 -0.60388,0.22569 -2.56305,0.82024 -3.19718,1.09624 -0.099,0.043 -0.22349,0.0273 -0.2241,0.0742 -0.0194,1.48924 0.36038,3.82686 0.45629,3.98712 0.34132,0.57046 -2.15125,-3.15264 -2.20357,-3.05395 4.70858,6.17817 0.0392,-0.0145 0,0 l -3.55391,1.31321 c -0.0393,0.0145 -0.0794,-0.0571 -0.0552,-0.0912 l 1.94057,-2.754 c 0.0242,-0.0341 -2.48351,-2.82652 -2.48351,-2.82652 z"
       id="rect909-8-54"
       inkscape:connector-curvature="0"
       sodipodi:nodetypes="ccsssssssssscsssscc" />
    <path
       style="opacity:1;fill:#00ffff;fill-opacity:1;stroke:#000000;stroke-width:0.33734095;stroke-linejoin:round;stroke-miterlimit:4;stroke-dasharray:none;stroke-opacity:1"
       d="m 148.18397,129.5881 3.70017,0.95825 c 0.0504,-0.20768 2.48815,-3.89065 1.83972,-3.49812 -8.7e-4,5e-4 0.10067,-0.0378 0.0666,0.12241 -0.0973,0.45865 0.18,1.77519 0.10056,3.7534 -0.003,0.0704 0.13956,0.0243 0.21033,0.0366 1.38279,0.24018 2.99325,0.51839 3.50282,0.64269 0.47611,0.11616 0.13924,0.14645 0.12579,0.19058 -0.0112,0.0372 -0.17744,0.0313 -0.22526,0.0492 -0.60388,0.22569 -2.56305,0.82024 -3.19718,1.09624 -0.099,0.043 -0.22349,0.0273 -0.2241,0.0742 -0.0194,1.48924 0.36038,3.82686 0.45629,3.98712 0.34132,0.57046 -2.15125,-3.15264 -2.20357,-3.05395 4.70858,6.17817 0.0392,-0.0145 0,0 l -3.55391,1.31321 c -0.0393,0.0145 -0.0794,-0.0571 -0.0552,-0.0912 l 1.94057,-2.754 c 0.0242,-0.0341 -2.48351,-2.82652 -2.48351,-2.82652 z"
       id="rect909-8-05"
       inkscape:connector-curvature="0"
       sodipodi:nodetypes="ccsssssssssscsssscc" />
    <path
       style="opacity:1;fill:#00ffff;fill-opacity:1;stroke:#000000;stroke-width:0.33734095;stroke-linejoin:round;stroke-miterlimit:4;stroke-dasharray:none;stroke-opacity:1"
       d="m 158.14058,131.94906 3.70017,0.95825 c 0.0504,-0.20768 2.48815,-3.89065 1.83972,-3.49812 -8.7e-4,5e-4 0.10067,-0.0378 0.0666,0.12241 -0.0973,0.45865 0.18,1.77519 0.10056,3.7534 -0.003,0.0704 0.13956,0.0243 0.21033,0.0366 1.38279,0.24018 2.99325,0.51839 3.50282,0.64269 0.47611,0.11616 0.13924,0.14645 0.12579,0.19058 -0.0112,0.0372 -0.17744,0.0313 -0.22526,0.0492 -0.60388,0.22569 -2.56305,0.82024 -3.19718,1.09624 -0.099,0.043 -0.22349,0.0273 -0.2241,0.0742 -0.0194,1.48924 0.36038,3.82686 0.45629,3.98712 0.34132,0.57046 -2.15125,-3.15264 -2.20357,-3.05395 4.70858,6.17817 0.0392,-0.0145 0,0 l -3.55391,1.31321 c -0.0393,0.0145 -0.0794,-0.0571 -0.0552,-0.0912 l 1.94057,-2.754 c 0.0242,-0.0341 -2.48351,-2.82652 -2.48351,-2.82652 z"
       id="rect909-8-94"
       inkscape:connector-curvature="0"
       sodipodi:nodetypes="ccsssssssssscsssscc" />
    <path
       style="opacity:1;fill:#00ffff;fill-opacity:1;stroke:#000000;stroke-width:0.33734095;stroke-linejoin:round;stroke-miterlimit:4;stroke-dasharray:none;stroke-opacity:1"
       d="m 168.19155,134.56772 3.73311,0.82062 c 0.0427,-0.2094 2.34242,-3.98009 1.70896,-3.56383 -8.5e-4,5.3e-4 0.0992,-0.0415 0.0711,0.11986 -0.0803,0.46194 0.24559,1.76731 0.23943,3.74711 -3.9e-4,0.0705 0.14037,0.0191 0.21154,0.0288 1.39074,0.18882 3.01039,0.40722 3.52422,0.51258 0.48008,0.0985 0.14456,0.14119 0.13275,0.18579 -0.01,0.0376 -0.17616,0.0379 -0.22328,0.0575 -0.59511,0.24789 -2.53093,0.91456 -3.15441,1.21385 -0.0973,0.0466 -0.22232,0.0356 -0.2212,0.0824 0.0358,1.48894 0.5018,3.8109 0.60358,3.9675 0.3622,0.55743 -2.26648,-3.07084 -2.31511,-2.97028 4.93406,5.99963 0.0386,-0.016 0,0 l -3.50286,1.44387 c -0.0387,0.0159 -0.0815,-0.0541 -0.0585,-0.0891 l 1.83729,-2.82395 c 0.0229,-0.035 -2.58644,-2.73264 -2.58644,-2.73264 z"
       id="rect909-8-69"
       inkscape:connector-curvature="0"
       sodipodi:nodetypes="ccsssssssssscsssscc" />
    <path
       style="opacity:1;fill:#00ffff;fill-opacity:1;stroke:#000000;stroke-width:0.33734095;stroke-linejoin:round;stroke-miterlimit:4;stroke-dasharray:none;stroke-opacity:1"
       d="m 177.81042,136.86898 3.79385,0.46497 c 0.0227,-0.21249 1.95671,-4.18322 1.36533,-3.70908 -8e-4,6.1e-4 0.0948,-0.0507 0.0821,0.11263 -0.0363,0.46744 0.41113,1.73628 0.59168,3.70783 0.006,0.0702 0.14154,0.006 0.21331,0.009 1.40234,0.0568 3.03537,0.12157 3.55684,0.178 0.48723,0.0528 0.15723,0.12694 0.14968,0.17245 -0.006,0.0384 -0.1718,0.0543 -0.21686,0.0783 -0.56909,0.3029 -2.43343,1.14912 -3.02591,1.50586 -0.0925,0.0556 -0.21798,0.0564 -0.21244,0.10293 0.17597,1.47894 0.85889,3.74661 0.97497,3.89291 0.41315,0.5208 -2.54592,-2.84346 -2.58486,-2.73876 5.47777,5.50768 0.037,-0.0195 0,0 l -3.35111,1.76772 c -0.0371,0.0195 -0.0862,-0.0462 -0.0667,-0.0832 l 1.56284,-2.98461 c 0.0195,-0.037 -2.83257,-2.4766 -2.83257,-2.4766 z"
       id="rect909-8-22"
       inkscape:connector-curvature="0"
       sodipodi:nodetypes="ccsssssssssscsssscc" />
    <path
       style="opacity:1;fill:#00ffff;fill-opacity:1;stroke:#000000;stroke-width:0.33734095;stroke-linejoin:round;stroke-miterlimit:4;stroke-dasharray:none;stroke-opacity:1"
       d="m 188.02486,137.92067 3.8146,0.24151 c 0.0102,-0.21346 1.70781,-4.29085 1.14528,-3.78282 -7.7e-4,6.6e-4 0.0917,-0.0562 0.0885,0.10761 -0.009,0.46878 0.51233,1.70916 0.80827,3.66672 0.0104,0.0697 0.14164,-0.003 0.21346,-0.004 1.40326,-0.0256 3.03727,-0.0568 3.56115,-0.0311 0.48949,0.0241 0.16442,0.11749 0.15955,0.16337 -0.004,0.0386 -0.16832,0.0643 -0.2119,0.0909 -0.55032,0.33578 -2.36178,1.28996 -2.9323,1.68086 -0.0891,0.0609 -0.2143,0.0691 -0.20604,0.11523 0.26247,1.46605 1.0773,3.68973 1.20178,3.82897 0.443,0.49566 -2.70843,-2.68913 -2.74115,-2.58233 5.79158,5.17669 0.0357,-0.0216 0,0 l -3.24159,1.96135 c -0.0359,0.0217 -0.0888,-0.0411 -0.0714,-0.0791 l 1.38497,-3.07119 c 0.0173,-0.0381 -2.97304,-2.30608 -2.97304,-2.30608 z"
       id="rect909-8-47"
       inkscape:connector-curvature="0"
       sodipodi:nodetypes="ccsssssssssscsssscc" />
    <path
       style="opacity:1;fill:#00ffff;fill-opacity:1;stroke:#000000;stroke-width:0.33734095;stroke-linejoin:round;stroke-miterlimit:4;stroke-dasharray:none;stroke-opacity:1"
       d="m 198.25631,138.22576 3.82221,0.0142 c -0.002,-0.2137 1.44955,-4.38485 0.91823,-3.84425 -7.3e-4,7e-4 0.0882,-0.0615 0.0948,0.10215 0.0191,0.46847 0.6131,1.67566 1.02496,3.61215 0.0145,0.069 0.14124,-0.011 0.21285,-0.0165 1.39926,-0.10898 3.02852,-0.23737 3.55301,-0.24284 0.49005,-0.005 0.17111,0.1075 0.16898,0.15358 -0.002,0.0388 -0.1642,0.0742 -0.20612,0.10334 -0.52938,0.36792 -2.28086,1.42817 -2.82712,1.85231 -0.0853,0.0661 -0.20982,0.0817 -0.19882,0.12728 0.34922,1.44785 1.29488,3.61912 1.42742,3.75071 0.4717,0.46842 -2.8636,-2.52326 -2.88991,-2.41471 6.08926,4.82301 0.0344,-0.0237 0,0 l -3.11918,2.15071 c -0.0345,0.0238 -0.091,-0.0357 -0.076,-0.0747 l 1.19983,-3.14813 c 0.015,-0.039 -3.10496,-2.12515 -3.10496,-2.12515 z"
       id="rect909-8-75"
       inkscape:connector-curvature="0"
       sodipodi:nodetypes="ccsssssssssscsssscc" />
    <path
       style="opacity:1;fill:#00ffff;fill-opacity:1;stroke:#000000;stroke-width:0.33734095;stroke-linejoin:round;stroke-miterlimit:4;stroke-dasharray:none;stroke-opacity:1"
       d="m 209.16126,137.37459 3.79129,0.48534 c 0.0239,-0.21237 1.97915,-4.17265 1.38523,-3.7017 -8e-4,6.1e-4 0.0951,-0.0502 0.0815,0.11307 -0.0388,0.46724 0.4018,1.73846 0.57176,3.71096 0.006,0.0702 0.14151,0.007 0.21326,0.01 1.40202,0.0644 3.03468,0.13786 3.55583,0.1971 0.48694,0.0554 0.15655,0.12778 0.14876,0.17325 -0.006,0.0383 -0.17209,0.0534 -0.21728,0.0771 -0.57071,0.29984 -2.43956,1.13604 -3.03395,1.48959 -0.0928,0.0551 -0.21828,0.0552 -0.21299,0.10179 0.16803,1.47986 0.83875,3.75117 0.95405,3.89809 0.41035,0.52301 -2.53062,-2.85709 -2.57011,-2.7526 5.44811,5.53701 0.0371,-0.0193 0,0 l -3.36056,1.74969 c -0.0372,0.0193 -0.0859,-0.0467 -0.0662,-0.0835 l 1.57884,-2.97617 c 0.0197,-0.0369 -2.81923,-2.49178 -2.81923,-2.49178 z"
       id="rect909-8-481"
       inkscape:connector-curvature="0"
       sodipodi:nodetypes="ccsssssssssscsssscc" />
    <path
       style="opacity:1;fill:#00ffff;fill-opacity:1;stroke:#000000;stroke-width:0.33734095;stroke-linejoin:round;stroke-miterlimit:4;stroke-dasharray:none;stroke-opacity:1"
       d="m 218.7423,138.15277 3.82088,0.10192 c 0.002,-0.2137 1.54984,-4.35041 1.00624,-3.82216 -7.3e-4,6.8e-4 0.0896,-0.0595 0.0924,0.10431 0.008,0.46878 0.57446,1.68928 0.94176,3.63472 0.0129,0.0693 0.14145,-0.008 0.21317,-0.0116 1.40139,-0.0768 3.03318,-0.16777 3.55765,-0.16121 0.49003,0.006 0.16859,0.1114 0.16541,0.15743 -0.003,0.0388 -0.16586,0.0704 -0.20843,0.0986 -0.53769,0.35566 -2.31306,1.37542 -2.86891,1.78691 -0.0868,0.0642 -0.21163,0.0769 -0.20169,0.12268 0.31589,1.45549 1.21145,3.6479 1.34093,3.78249 0.46083,0.47913 -2.80491,-2.58833 -2.8337,-2.48041 5.97693,4.96153 0.0349,-0.0229 0,0 l -3.16773,2.07853 c -0.035,0.023 -0.0902,-0.0378 -0.0743,-0.0765 l 1.27179,-3.11975 c 0.0159,-0.0387 -3.05536,-2.19588 -3.05536,-2.19588 z"
       id="rect909-8-68"
       inkscape:connector-curvature="0"
       sodipodi:nodetypes="ccsssssssssscsssscc" />
    <path
       style="opacity:1;fill:#00ffff;fill-opacity:1;stroke:#000000;stroke-width:0.33734095;stroke-linejoin:round;stroke-miterlimit:4;stroke-dasharray:none;stroke-opacity:1"
       d="m 307.23326,134.85216 3.52361,-1.48112 c -0.0858,-0.19571 -0.37989,-4.60257 -0.65761,-3.8973 -3.9e-4,9.3e-4 0.0571,-0.0911 0.12718,0.057 0.20067,0.42374 1.21934,1.30265 2.35543,2.92404 0.0403,0.0578 0.12572,-0.0653 0.18946,-0.0984 1.24532,-0.64729 2.69475,-1.40236 3.17536,-1.61243 0.44906,-0.19626 0.19951,0.032 0.21557,0.0753 0.0136,0.0364 -0.12214,0.13247 -0.14932,0.17569 -0.34343,0.54559 -1.54108,2.20615 -1.87807,2.81008 -0.0527,0.0942 -0.16119,0.1572 -0.13324,0.19487 0.88741,1.19613 2.6066,2.82496 2.78003,2.89426 0.61728,0.24676 -3.6221,-1.20306 -3.60388,-1.09285 7.4901,2.05885 0.0224,-0.0353 0,0 l -2.03024,3.19889 c -0.0225,0.0354 -0.0978,0.003 -0.0992,-0.0391 l -0.12629,-3.36666 c -0.001,-0.0418 -3.68864,-0.74228 -3.68864,-0.74228 z"
       id="rect909-8-108"
       inkscape:connector-curvature="0"
       sodipodi:nodetypes="ccsssssssssscsssscc"
       inkscape:transform-center-x="1.3182656"
       inkscape:transform-center-y="4.7236363" />
    <path
       style="opacity:1;fill:#00ffff;fill-opacity:1;stroke:#000000;stroke-width:0.33734095;stroke-linejoin:round;stroke-miterlimit:4;stroke-dasharray:none;stroke-opacity:1"
       d="m 229.23564,137.98601 3.70017,0.95825 c 0.0504,-0.20768 2.48815,-3.89065 1.83972,-3.49812 -8.7e-4,5e-4 0.10067,-0.0378 0.0666,0.12241 -0.0973,0.45865 0.18,1.77519 0.10056,3.7534 -0.003,0.0704 0.13956,0.0243 0.21033,0.0366 1.38279,0.24018 2.99325,0.51839 3.50282,0.64269 0.47611,0.11616 0.13924,0.14645 0.12579,0.19058 -0.0112,0.0372 -0.17744,0.0313 -0.22526,0.0492 -0.60388,0.22569 -2.56305,0.82024 -3.19718,1.09624 -0.099,0.043 -0.22349,0.0273 -0.2241,0.0742 -0.0194,1.48924 0.36038,3.82686 0.45629,3.98712 0.34132,0.57046 -2.15125,-3.15264 -2.20357,-3.05395 4.70858,6.17817 0.0392,-0.0145 0,0 l -3.55391,1.31321 c -0.0393,0.0145 -0.0794,-0.0571 -0.0552,-0.0912 l 1.94057,-2.754 c 0.0242,-0.0341 -2.48351,-2.82652 -2.48351,-2.82652 z"
       id="rect909-8-50"
       inkscape:connector-curvature="0"
       sodipodi:nodetypes="ccsssssssssscsssscc" />
    <path
       style="opacity:1;fill:#00ffff;fill-opacity:1;stroke:#000000;stroke-width:0.33734095;stroke-linejoin:round;stroke-miterlimit:4;stroke-dasharray:none;stroke-opacity:1"
       d="m 239.41088,140.17559 3.70017,0.95825 c 0.0504,-0.20768 2.48815,-3.89065 1.83972,-3.49812 -8.8e-4,5e-4 0.10067,-0.0378 0.0666,0.12241 -0.0973,0.45865 0.18,1.77519 0.10056,3.7534 -0.003,0.0704 0.13956,0.0243 0.21033,0.0366 1.38279,0.24018 2.99325,0.51839 3.50282,0.64269 0.47611,0.11616 0.13924,0.14645 0.12579,0.19058 -0.0112,0.0372 -0.17744,0.0313 -0.22526,0.0492 -0.60388,0.22569 -2.56305,0.82024 -3.19718,1.09624 -0.099,0.043 -0.22349,0.0273 -0.2241,0.0742 -0.0194,1.48924 0.36038,3.82686 0.45629,3.98712 0.34132,0.57046 -2.15125,-3.15264 -2.20357,-3.05395 4.70858,6.17817 0.0392,-0.0145 0,0 l -3.55391,1.31321 c -0.0393,0.0145 -0.0794,-0.0571 -0.0552,-0.0912 l 1.94057,-2.754 c 0.0242,-0.0341 -2.48351,-2.82652 -2.48351,-2.82652 z"
       id="rect909-8-646"
       inkscape:connector-curvature="0"
       sodipodi:nodetypes="ccsssssssssscsssscc" />
    <path
       style="opacity:1;fill:#00ffff;fill-opacity:1;stroke:#000000;stroke-width:0.33734095;stroke-linejoin:round;stroke-miterlimit:4;stroke-dasharray:none;stroke-opacity:1"
       d="m 249.45084,142.72972 3.70017,0.95825 c 0.0504,-0.20768 2.48815,-3.89065 1.83972,-3.49812 -8.7e-4,5e-4 0.10067,-0.0378 0.0666,0.12241 -0.0973,0.45865 0.18,1.77519 0.10056,3.7534 -0.003,0.0704 0.13956,0.0243 0.21033,0.0366 1.38279,0.24018 2.99325,0.51839 3.50282,0.64269 0.47611,0.11616 0.13924,0.14645 0.12579,0.19058 -0.0112,0.0372 -0.17744,0.0313 -0.22526,0.0492 -0.60388,0.22569 -2.56305,0.82024 -3.19718,1.09624 -0.099,0.043 -0.22349,0.0273 -0.2241,0.0742 -0.0194,1.48924 0.36038,3.82686 0.45629,3.98712 0.34132,0.57046 -2.15125,-3.15264 -2.20357,-3.05395 4.70858,6.17817 0.0392,-0.0145 0,0 l -3.55391,1.31321 c -0.0393,0.0145 -0.0794,-0.0571 -0.0552,-0.0912 l 1.94057,-2.754 c 0.0242,-0.0341 -2.48351,-2.82652 -2.48351,-2.82652 z"
       id="rect909-8-25"
       inkscape:connector-curvature="0"
       sodipodi:nodetypes="ccsssssssssscsssscc" />
    <path
       style="opacity:1;fill:#00ffff;fill-opacity:1;stroke:#000000;stroke-width:0.33734095;stroke-linejoin:round;stroke-miterlimit:4;stroke-dasharray:none;stroke-opacity:1"
       d="m 259.19311,144.74069 3.81372,-0.25512 c -0.0175,-0.21299 1.13706,-4.47606 0.64514,-3.89938 -6.6e-4,7.4e-4 0.0837,-0.0676 0.10175,0.0952 0.052,0.46596 0.72961,1.6283 1.27686,3.53097 0.0193,0.0678 0.14012,-0.0209 0.21116,-0.0315 1.38811,-0.20728 3.00428,-0.45012 3.52707,-0.49253 0.48848,-0.0396 0.17826,0.0952 0.17939,0.1413 0.001,0.0388 -0.15857,0.0856 -0.19833,0.11761 -0.50215,0.40429 -2.17459,1.58529 -2.68962,2.04686 -0.0804,0.072 -0.20354,0.0963 -0.18935,0.14096 0.45033,1.41965 1.5466,3.51892 1.68808,3.64084 0.50352,0.43403 -3.03423,-2.31527 -3.05283,-2.20513 6.41389,4.38208 0.0326,-0.0261 0,0 l -2.95992,2.36509 c -0.0327,0.0261 -0.0933,-0.0292 -0.0811,-0.0692 l 0.97508,-3.22483 c 0.0122,-0.04 -3.24695,-1.90114 -3.24695,-1.90114 z"
       id="rect909-8-86"
       inkscape:connector-curvature="0"
       sodipodi:nodetypes="ccsssssssssscsssscc"
       inkscape:transform-center-x="0.56468096"
       inkscape:transform-center-y="1.1343135" />
    <path
       style="opacity:1;fill:#00ffff;fill-opacity:1;stroke:#000000;stroke-width:0.33734095;stroke-linejoin:round;stroke-miterlimit:4;stroke-dasharray:none;stroke-opacity:1"
       d="m 269.26944,143.59096 3.81318,-0.26299 c -0.018,-0.21295 1.12783,-4.4784 0.6371,-3.9007 -6.8e-4,7.5e-4 0.0835,-0.0677 0.10194,0.095 0.053,0.46586 0.73297,1.6268 1.28415,3.52833 0.0195,0.0677 0.14007,-0.0212 0.21109,-0.0319 1.38768,-0.21014 3.00334,-0.45631 3.52605,-0.4998 0.48839,-0.0406 0.17845,0.0948 0.17967,0.14093 10e-4,0.0388 -0.15839,0.0859 -0.19808,0.11801 -0.50131,0.40533 -2.17132,1.58977 -2.68539,2.05241 -0.0803,0.0721 -0.20334,0.0967 -0.18906,0.14135 0.45326,1.41872 1.55386,3.51572 1.69559,3.63735 0.50442,0.43299 -3.039,-2.309 -3.05737,-2.19882 6.42291,4.36883 0.0326,-0.0262 0,0 l -2.95504,2.37119 c -0.0327,0.0262 -0.0934,-0.029 -0.0812,-0.069 l 0.96843,-3.22684 c 0.0121,-0.04 -3.25087,-1.89444 -3.25087,-1.89444 z"
       id="rect909-8-284"
       inkscape:connector-curvature="0"
       sodipodi:nodetypes="ccsssssssssscsssscc" />
    <path
       style="opacity:1;fill:#00ffff;fill-opacity:1;stroke:#000000;stroke-width:0.33734095;stroke-linejoin:round;stroke-miterlimit:4;stroke-dasharray:none;stroke-opacity:1"
       d="m 279.51092,142.86172 3.73688,-0.80327 c -0.0481,-0.20823 0.47864,-4.59336 0.0752,-3.95168 -5.5e-4,8.4e-4 0.073,-0.0789 0.11444,0.0795 0.11876,0.45357 0.95714,1.50585 1.77346,3.30952 0.0289,0.0643 0.13564,-0.0409 0.2044,-0.0616 1.34362,-0.40559 2.90777,-0.87931 3.41895,-0.99678 0.47763,-0.10975 0.19014,0.0684 0.19792,0.1139 0.007,0.0383 -0.14455,0.10757 -0.17926,0.14502 -0.43849,0.47258 -1.92283,1.88275 -2.36579,2.41387 -0.0692,0.0828 -0.1875,0.12464 -0.16701,0.16684 0.65066,1.33972 2.03864,3.25863 2.19624,3.35884 0.56094,0.35676 -3.33681,-1.85275 -3.33931,-1.74107 6.97956,3.40974 0.0285,-0.0306 0,0 l -2.58729,2.7678 c -0.0286,0.0306 -0.0966,-0.0154 -0.0902,-0.0567 l 0.49909,-3.33185 c 0.006,-0.0413 -3.48749,-1.41225 -3.48749,-1.41225 z"
       id="rect909-8-72"
       inkscape:connector-curvature="0"
       sodipodi:nodetypes="ccsssssssssscsssscc" />
    <path
       style="opacity:1;fill:#00ffff;fill-opacity:1;stroke:#000000;stroke-width:0.33734095;stroke-linejoin:round;stroke-miterlimit:4;stroke-dasharray:none;stroke-opacity:1"
       d="m 289.06043,140.07506 3.81847,-0.16971 c -0.0128,-0.21333 1.23694,-4.4495 0.73224,-3.88397 -6.8e-4,7.3e-4 0.0851,-0.0657 0.0996,0.0975 0.0416,0.46701 0.69299,1.64422 1.19753,3.55865 0.0178,0.0682 0.14055,-0.0177 0.21181,-0.0267 1.39239,-0.17616 3.0136,-0.38276 3.53721,-0.41346 0.48923,-0.0287 0.17608,0.0991 0.17617,0.14527 2.1e-4,0.0388 -0.16044,0.082 -0.2009,0.11314 -0.51107,0.39295 -2.20953,1.53623 -2.73475,1.98616 -0.082,0.0702 -0.20565,0.0917 -0.19247,0.13669 0.41846,1.42937 1.46747,3.55264 1.60618,3.67771 0.49369,0.44519 -2.98165,-2.3826 -3.00271,-2.2729 6.31422,4.52451 0.0332,-0.0254 0,0 l -3.01211,2.29826 c -0.0333,0.0254 -0.0927,-0.0313 -0.0795,-0.071 l 1.04701,-3.2022 c 0.0131,-0.0397 -3.20359,-1.97333 -3.20359,-1.97333 z"
       id="rect909-8-40"
       inkscape:connector-curvature="0"
       sodipodi:nodetypes="ccsssssssssscsssscc" />
    <path
       style="opacity:1;fill:#00ffff;fill-opacity:1;stroke:#000000;stroke-width:0.33734095;stroke-linejoin:round;stroke-miterlimit:4;stroke-dasharray:none;stroke-opacity:1"
       d="m 298.855,138.76291 3.57648,-1.34844 c -0.0784,-0.19879 -0.20769,-4.61356 -0.51156,-3.91915 -4.2e-4,9.1e-4 0.0605,-0.0889 0.12496,0.0617 0.1847,0.43094 1.16983,1.34729 2.24456,3.00999 0.0381,0.0593 0.12807,-0.0605 0.193,-0.0913 1.26863,-0.60032 2.74526,-1.30072 3.23338,-1.49269 0.45608,-0.17934 0.19818,0.0395 0.21261,0.0833 0.0123,0.0369 -0.127,0.12781 -0.15578,0.16999 -0.36357,0.53237 -1.62242,2.14703 -1.98174,2.73796 -0.0562,0.0922 -0.16695,0.15106 -0.14042,0.18975 0.8421,1.22844 2.49924,2.92036 2.66996,2.9961 0.60764,0.26964 -3.57463,-1.33754 -3.56054,-1.22673 7.40796,2.33723 0.0237,-0.0344 0,0 l -2.14832,3.12082 c -0.0238,0.0345 -0.0978,-9.3e-4 -0.0977,-0.0427 l -4.3e-4,-3.36903 c 1.3e-4,-0.0418 -3.65834,-0.87955 -3.65834,-0.87955 z"
       id="rect909-8-62"
       inkscape:connector-curvature="0"
       sodipodi:nodetypes="ccsssssssssscsssscc" />
  </g>
</svg>
